<?xml version="1.0" encoding="utf-8" standalone="no"?>
<!DOCTYPE svg PUBLIC "-//W3C//DTD SVG 1.1//EN"
  "http://www.w3.org/Graphics/SVG/1.1/DTD/svg11.dtd">
<svg xmlns:xlink="http://www.w3.org/1999/xlink" width="460.8pt" height="345.6pt" viewBox="0 0 460.8 345.6" xmlns="http://www.w3.org/2000/svg" version="1.1">
 <metadata>
  <rdf:RDF xmlns:dc="http://purl.org/dc/elements/1.1/" xmlns:cc="http://creativecommons.org/ns#" xmlns:rdf="http://www.w3.org/1999/02/22-rdf-syntax-ns#">
   <cc:Work>
    <dc:type rdf:resource="http://purl.org/dc/dcmitype/StillImage"/>
    <dc:date>2023-03-21T15:43:55.097459</dc:date>
    <dc:format>image/svg+xml</dc:format>
    <dc:creator>
     <cc:Agent>
      <dc:title>Matplotlib v3.5.2, https://matplotlib.org/</dc:title>
     </cc:Agent>
    </dc:creator>
   </cc:Work>
  </rdf:RDF>
 </metadata>
 <defs>
  <style type="text/css">*{stroke-linejoin: round; stroke-linecap: butt}</style>
 </defs>
 <g id="figure_1">
  <g id="patch_1">
   <path d="M 0 345.6 
L 460.8 345.6 
L 460.8 0 
L 0 0 
z
" style="fill: #ffffff"/>
  </g>
  <g id="axes_1">
   <g id="patch_2">
    <path d="M 57.6 307.584 
L 414.72 307.584 
L 414.72 41.472 
L 57.6 41.472 
z
" style="fill: #ffffff"/>
   </g>
   <g id="matplotlib.axis_1">
    <g id="xtick_1">
     <g id="line2d_1">
      <defs>
       <path id="m806265b060" d="M 0 0 
L 0 3.5 
" style="stroke: #000000; stroke-width: 0.8"/>
      </defs>
      <g>
       <use xlink:href="#m806265b060" x="119.182379" y="307.584" style="stroke: #000000; stroke-width: 0.8"/>
      </g>
     </g>
     <g id="text_1">
      <!-- $\mathdefault{10^{2}}$ -->
      <g transform="translate(110.382379 322.182437)scale(0.1 -0.1)">
       <defs>
        <path id="DejaVuSans-31" d="M 794 531 
L 1825 531 
L 1825 4091 
L 703 3866 
L 703 4441 
L 1819 4666 
L 2450 4666 
L 2450 531 
L 3481 531 
L 3481 0 
L 794 0 
L 794 531 
z
" transform="scale(0.015625)"/>
        <path id="DejaVuSans-30" d="M 2034 4250 
Q 1547 4250 1301 3770 
Q 1056 3291 1056 2328 
Q 1056 1369 1301 889 
Q 1547 409 2034 409 
Q 2525 409 2770 889 
Q 3016 1369 3016 2328 
Q 3016 3291 2770 3770 
Q 2525 4250 2034 4250 
z
M 2034 4750 
Q 2819 4750 3233 4129 
Q 3647 3509 3647 2328 
Q 3647 1150 3233 529 
Q 2819 -91 2034 -91 
Q 1250 -91 836 529 
Q 422 1150 422 2328 
Q 422 3509 836 4129 
Q 1250 4750 2034 4750 
z
" transform="scale(0.015625)"/>
        <path id="DejaVuSans-32" d="M 1228 531 
L 3431 531 
L 3431 0 
L 469 0 
L 469 531 
Q 828 903 1448 1529 
Q 2069 2156 2228 2338 
Q 2531 2678 2651 2914 
Q 2772 3150 2772 3378 
Q 2772 3750 2511 3984 
Q 2250 4219 1831 4219 
Q 1534 4219 1204 4116 
Q 875 4013 500 3803 
L 500 4441 
Q 881 4594 1212 4672 
Q 1544 4750 1819 4750 
Q 2544 4750 2975 4387 
Q 3406 4025 3406 3419 
Q 3406 3131 3298 2873 
Q 3191 2616 2906 2266 
Q 2828 2175 2409 1742 
Q 1991 1309 1228 531 
z
" transform="scale(0.015625)"/>
       </defs>
       <use xlink:href="#DejaVuSans-31" transform="translate(0 0.765625)"/>
       <use xlink:href="#DejaVuSans-30" transform="translate(63.623047 0.765625)"/>
       <use xlink:href="#DejaVuSans-32" transform="translate(128.203125 39.046875)scale(0.7)"/>
      </g>
     </g>
    </g>
    <g id="xtick_2">
     <g id="line2d_2">
      <g>
       <use xlink:href="#m806265b060" x="240.025834" y="307.584" style="stroke: #000000; stroke-width: 0.8"/>
      </g>
     </g>
     <g id="text_2">
      <!-- $\mathdefault{10^{3}}$ -->
      <g transform="translate(231.225834 322.182437)scale(0.1 -0.1)">
       <defs>
        <path id="DejaVuSans-33" d="M 2597 2516 
Q 3050 2419 3304 2112 
Q 3559 1806 3559 1356 
Q 3559 666 3084 287 
Q 2609 -91 1734 -91 
Q 1441 -91 1130 -33 
Q 819 25 488 141 
L 488 750 
Q 750 597 1062 519 
Q 1375 441 1716 441 
Q 2309 441 2620 675 
Q 2931 909 2931 1356 
Q 2931 1769 2642 2001 
Q 2353 2234 1838 2234 
L 1294 2234 
L 1294 2753 
L 1863 2753 
Q 2328 2753 2575 2939 
Q 2822 3125 2822 3475 
Q 2822 3834 2567 4026 
Q 2313 4219 1838 4219 
Q 1578 4219 1281 4162 
Q 984 4106 628 3988 
L 628 4550 
Q 988 4650 1302 4700 
Q 1616 4750 1894 4750 
Q 2613 4750 3031 4423 
Q 3450 4097 3450 3541 
Q 3450 3153 3228 2886 
Q 3006 2619 2597 2516 
z
" transform="scale(0.015625)"/>
       </defs>
       <use xlink:href="#DejaVuSans-31" transform="translate(0 0.765625)"/>
       <use xlink:href="#DejaVuSans-30" transform="translate(63.623047 0.765625)"/>
       <use xlink:href="#DejaVuSans-33" transform="translate(128.203125 39.046875)scale(0.7)"/>
      </g>
     </g>
    </g>
    <g id="xtick_3">
     <g id="line2d_3">
      <g>
       <use xlink:href="#m806265b060" x="360.869288" y="307.584" style="stroke: #000000; stroke-width: 0.8"/>
      </g>
     </g>
     <g id="text_3">
      <!-- $\mathdefault{10^{4}}$ -->
      <g transform="translate(352.069288 322.182437)scale(0.1 -0.1)">
       <defs>
        <path id="DejaVuSans-34" d="M 2419 4116 
L 825 1625 
L 2419 1625 
L 2419 4116 
z
M 2253 4666 
L 3047 4666 
L 3047 1625 
L 3713 1625 
L 3713 1100 
L 3047 1100 
L 3047 0 
L 2419 0 
L 2419 1100 
L 313 1100 
L 313 1709 
L 2253 4666 
z
" transform="scale(0.015625)"/>
       </defs>
       <use xlink:href="#DejaVuSans-31" transform="translate(0 0.684375)"/>
       <use xlink:href="#DejaVuSans-30" transform="translate(63.623047 0.684375)"/>
       <use xlink:href="#DejaVuSans-34" transform="translate(128.203125 38.965625)scale(0.7)"/>
      </g>
     </g>
    </g>
    <g id="xtick_4">
     <g id="line2d_4">
      <defs>
       <path id="m6de2eadaff" d="M 0 0 
L 0 2 
" style="stroke: #000000; stroke-width: 0.6"/>
      </defs>
      <g>
       <use xlink:href="#m6de2eadaff" x="71.093933" y="307.584" style="stroke: #000000; stroke-width: 0.6"/>
      </g>
     </g>
    </g>
    <g id="xtick_5">
     <g id="line2d_5">
      <g>
       <use xlink:href="#m6de2eadaff" x="82.804874" y="307.584" style="stroke: #000000; stroke-width: 0.6"/>
      </g>
     </g>
    </g>
    <g id="xtick_6">
     <g id="line2d_6">
      <g>
       <use xlink:href="#m6de2eadaff" x="92.373409" y="307.584" style="stroke: #000000; stroke-width: 0.6"/>
      </g>
     </g>
    </g>
    <g id="xtick_7">
     <g id="line2d_7">
      <g>
       <use xlink:href="#m6de2eadaff" x="100.463491" y="307.584" style="stroke: #000000; stroke-width: 0.6"/>
      </g>
     </g>
    </g>
    <g id="xtick_8">
     <g id="line2d_8">
      <g>
       <use xlink:href="#m6de2eadaff" x="107.471438" y="307.584" style="stroke: #000000; stroke-width: 0.6"/>
      </g>
     </g>
    </g>
    <g id="xtick_9">
     <g id="line2d_9">
      <g>
       <use xlink:href="#m6de2eadaff" x="113.652885" y="307.584" style="stroke: #000000; stroke-width: 0.6"/>
      </g>
     </g>
    </g>
    <g id="xtick_10">
     <g id="line2d_10">
      <g>
       <use xlink:href="#m6de2eadaff" x="155.559883" y="307.584" style="stroke: #000000; stroke-width: 0.6"/>
      </g>
     </g>
    </g>
    <g id="xtick_11">
     <g id="line2d_11">
      <g>
       <use xlink:href="#m6de2eadaff" x="176.839359" y="307.584" style="stroke: #000000; stroke-width: 0.6"/>
      </g>
     </g>
    </g>
    <g id="xtick_12">
     <g id="line2d_12">
      <g>
       <use xlink:href="#m6de2eadaff" x="191.937388" y="307.584" style="stroke: #000000; stroke-width: 0.6"/>
      </g>
     </g>
    </g>
    <g id="xtick_13">
     <g id="line2d_13">
      <g>
       <use xlink:href="#m6de2eadaff" x="203.648329" y="307.584" style="stroke: #000000; stroke-width: 0.6"/>
      </g>
     </g>
    </g>
    <g id="xtick_14">
     <g id="line2d_14">
      <g>
       <use xlink:href="#m6de2eadaff" x="213.216864" y="307.584" style="stroke: #000000; stroke-width: 0.6"/>
      </g>
     </g>
    </g>
    <g id="xtick_15">
     <g id="line2d_15">
      <g>
       <use xlink:href="#m6de2eadaff" x="221.306945" y="307.584" style="stroke: #000000; stroke-width: 0.6"/>
      </g>
     </g>
    </g>
    <g id="xtick_16">
     <g id="line2d_16">
      <g>
       <use xlink:href="#m6de2eadaff" x="228.314893" y="307.584" style="stroke: #000000; stroke-width: 0.6"/>
      </g>
     </g>
    </g>
    <g id="xtick_17">
     <g id="line2d_17">
      <g>
       <use xlink:href="#m6de2eadaff" x="234.49634" y="307.584" style="stroke: #000000; stroke-width: 0.6"/>
      </g>
     </g>
    </g>
    <g id="xtick_18">
     <g id="line2d_18">
      <g>
       <use xlink:href="#m6de2eadaff" x="276.403338" y="307.584" style="stroke: #000000; stroke-width: 0.6"/>
      </g>
     </g>
    </g>
    <g id="xtick_19">
     <g id="line2d_19">
      <g>
       <use xlink:href="#m6de2eadaff" x="297.682814" y="307.584" style="stroke: #000000; stroke-width: 0.6"/>
      </g>
     </g>
    </g>
    <g id="xtick_20">
     <g id="line2d_20">
      <g>
       <use xlink:href="#m6de2eadaff" x="312.780843" y="307.584" style="stroke: #000000; stroke-width: 0.6"/>
      </g>
     </g>
    </g>
    <g id="xtick_21">
     <g id="line2d_21">
      <g>
       <use xlink:href="#m6de2eadaff" x="324.491784" y="307.584" style="stroke: #000000; stroke-width: 0.6"/>
      </g>
     </g>
    </g>
    <g id="xtick_22">
     <g id="line2d_22">
      <g>
       <use xlink:href="#m6de2eadaff" x="334.060319" y="307.584" style="stroke: #000000; stroke-width: 0.6"/>
      </g>
     </g>
    </g>
    <g id="xtick_23">
     <g id="line2d_23">
      <g>
       <use xlink:href="#m6de2eadaff" x="342.1504" y="307.584" style="stroke: #000000; stroke-width: 0.6"/>
      </g>
     </g>
    </g>
    <g id="xtick_24">
     <g id="line2d_24">
      <g>
       <use xlink:href="#m6de2eadaff" x="349.158348" y="307.584" style="stroke: #000000; stroke-width: 0.6"/>
      </g>
     </g>
    </g>
    <g id="xtick_25">
     <g id="line2d_25">
      <g>
       <use xlink:href="#m6de2eadaff" x="355.339795" y="307.584" style="stroke: #000000; stroke-width: 0.6"/>
      </g>
     </g>
    </g>
    <g id="xtick_26">
     <g id="line2d_26">
      <g>
       <use xlink:href="#m6de2eadaff" x="397.246793" y="307.584" style="stroke: #000000; stroke-width: 0.6"/>
      </g>
     </g>
    </g>
    <g id="text_4">
     <!-- Bounding Box Area -->
     <g transform="translate(188.451406 335.860562)scale(0.1 -0.1)">
      <defs>
       <path id="DejaVuSans-42" d="M 1259 2228 
L 1259 519 
L 2272 519 
Q 2781 519 3026 730 
Q 3272 941 3272 1375 
Q 3272 1813 3026 2020 
Q 2781 2228 2272 2228 
L 1259 2228 
z
M 1259 4147 
L 1259 2741 
L 2194 2741 
Q 2656 2741 2882 2914 
Q 3109 3088 3109 3444 
Q 3109 3797 2882 3972 
Q 2656 4147 2194 4147 
L 1259 4147 
z
M 628 4666 
L 2241 4666 
Q 2963 4666 3353 4366 
Q 3744 4066 3744 3513 
Q 3744 3084 3544 2831 
Q 3344 2578 2956 2516 
Q 3422 2416 3680 2098 
Q 3938 1781 3938 1306 
Q 3938 681 3513 340 
Q 3088 0 2303 0 
L 628 0 
L 628 4666 
z
" transform="scale(0.015625)"/>
       <path id="DejaVuSans-6f" d="M 1959 3097 
Q 1497 3097 1228 2736 
Q 959 2375 959 1747 
Q 959 1119 1226 758 
Q 1494 397 1959 397 
Q 2419 397 2687 759 
Q 2956 1122 2956 1747 
Q 2956 2369 2687 2733 
Q 2419 3097 1959 3097 
z
M 1959 3584 
Q 2709 3584 3137 3096 
Q 3566 2609 3566 1747 
Q 3566 888 3137 398 
Q 2709 -91 1959 -91 
Q 1206 -91 779 398 
Q 353 888 353 1747 
Q 353 2609 779 3096 
Q 1206 3584 1959 3584 
z
" transform="scale(0.015625)"/>
       <path id="DejaVuSans-75" d="M 544 1381 
L 544 3500 
L 1119 3500 
L 1119 1403 
Q 1119 906 1312 657 
Q 1506 409 1894 409 
Q 2359 409 2629 706 
Q 2900 1003 2900 1516 
L 2900 3500 
L 3475 3500 
L 3475 0 
L 2900 0 
L 2900 538 
Q 2691 219 2414 64 
Q 2138 -91 1772 -91 
Q 1169 -91 856 284 
Q 544 659 544 1381 
z
M 1991 3584 
L 1991 3584 
z
" transform="scale(0.015625)"/>
       <path id="DejaVuSans-6e" d="M 3513 2113 
L 3513 0 
L 2938 0 
L 2938 2094 
Q 2938 2591 2744 2837 
Q 2550 3084 2163 3084 
Q 1697 3084 1428 2787 
Q 1159 2491 1159 1978 
L 1159 0 
L 581 0 
L 581 3500 
L 1159 3500 
L 1159 2956 
Q 1366 3272 1645 3428 
Q 1925 3584 2291 3584 
Q 2894 3584 3203 3211 
Q 3513 2838 3513 2113 
z
" transform="scale(0.015625)"/>
       <path id="DejaVuSans-64" d="M 2906 2969 
L 2906 4863 
L 3481 4863 
L 3481 0 
L 2906 0 
L 2906 525 
Q 2725 213 2448 61 
Q 2172 -91 1784 -91 
Q 1150 -91 751 415 
Q 353 922 353 1747 
Q 353 2572 751 3078 
Q 1150 3584 1784 3584 
Q 2172 3584 2448 3432 
Q 2725 3281 2906 2969 
z
M 947 1747 
Q 947 1113 1208 752 
Q 1469 391 1925 391 
Q 2381 391 2643 752 
Q 2906 1113 2906 1747 
Q 2906 2381 2643 2742 
Q 2381 3103 1925 3103 
Q 1469 3103 1208 2742 
Q 947 2381 947 1747 
z
" transform="scale(0.015625)"/>
       <path id="DejaVuSans-69" d="M 603 3500 
L 1178 3500 
L 1178 0 
L 603 0 
L 603 3500 
z
M 603 4863 
L 1178 4863 
L 1178 4134 
L 603 4134 
L 603 4863 
z
" transform="scale(0.015625)"/>
       <path id="DejaVuSans-67" d="M 2906 1791 
Q 2906 2416 2648 2759 
Q 2391 3103 1925 3103 
Q 1463 3103 1205 2759 
Q 947 2416 947 1791 
Q 947 1169 1205 825 
Q 1463 481 1925 481 
Q 2391 481 2648 825 
Q 2906 1169 2906 1791 
z
M 3481 434 
Q 3481 -459 3084 -895 
Q 2688 -1331 1869 -1331 
Q 1566 -1331 1297 -1286 
Q 1028 -1241 775 -1147 
L 775 -588 
Q 1028 -725 1275 -790 
Q 1522 -856 1778 -856 
Q 2344 -856 2625 -561 
Q 2906 -266 2906 331 
L 2906 616 
Q 2728 306 2450 153 
Q 2172 0 1784 0 
Q 1141 0 747 490 
Q 353 981 353 1791 
Q 353 2603 747 3093 
Q 1141 3584 1784 3584 
Q 2172 3584 2450 3431 
Q 2728 3278 2906 2969 
L 2906 3500 
L 3481 3500 
L 3481 434 
z
" transform="scale(0.015625)"/>
       <path id="DejaVuSans-20" transform="scale(0.015625)"/>
       <path id="DejaVuSans-78" d="M 3513 3500 
L 2247 1797 
L 3578 0 
L 2900 0 
L 1881 1375 
L 863 0 
L 184 0 
L 1544 1831 
L 300 3500 
L 978 3500 
L 1906 2253 
L 2834 3500 
L 3513 3500 
z
" transform="scale(0.015625)"/>
       <path id="DejaVuSans-41" d="M 2188 4044 
L 1331 1722 
L 3047 1722 
L 2188 4044 
z
M 1831 4666 
L 2547 4666 
L 4325 0 
L 3669 0 
L 3244 1197 
L 1141 1197 
L 716 0 
L 50 0 
L 1831 4666 
z
" transform="scale(0.015625)"/>
       <path id="DejaVuSans-72" d="M 2631 2963 
Q 2534 3019 2420 3045 
Q 2306 3072 2169 3072 
Q 1681 3072 1420 2755 
Q 1159 2438 1159 1844 
L 1159 0 
L 581 0 
L 581 3500 
L 1159 3500 
L 1159 2956 
Q 1341 3275 1631 3429 
Q 1922 3584 2338 3584 
Q 2397 3584 2469 3576 
Q 2541 3569 2628 3553 
L 2631 2963 
z
" transform="scale(0.015625)"/>
       <path id="DejaVuSans-65" d="M 3597 1894 
L 3597 1613 
L 953 1613 
Q 991 1019 1311 708 
Q 1631 397 2203 397 
Q 2534 397 2845 478 
Q 3156 559 3463 722 
L 3463 178 
Q 3153 47 2828 -22 
Q 2503 -91 2169 -91 
Q 1331 -91 842 396 
Q 353 884 353 1716 
Q 353 2575 817 3079 
Q 1281 3584 2069 3584 
Q 2775 3584 3186 3129 
Q 3597 2675 3597 1894 
z
M 3022 2063 
Q 3016 2534 2758 2815 
Q 2500 3097 2075 3097 
Q 1594 3097 1305 2825 
Q 1016 2553 972 2059 
L 3022 2063 
z
" transform="scale(0.015625)"/>
       <path id="DejaVuSans-61" d="M 2194 1759 
Q 1497 1759 1228 1600 
Q 959 1441 959 1056 
Q 959 750 1161 570 
Q 1363 391 1709 391 
Q 2188 391 2477 730 
Q 2766 1069 2766 1631 
L 2766 1759 
L 2194 1759 
z
M 3341 1997 
L 3341 0 
L 2766 0 
L 2766 531 
Q 2569 213 2275 61 
Q 1981 -91 1556 -91 
Q 1019 -91 701 211 
Q 384 513 384 1019 
Q 384 1609 779 1909 
Q 1175 2209 1959 2209 
L 2766 2209 
L 2766 2266 
Q 2766 2663 2505 2880 
Q 2244 3097 1772 3097 
Q 1472 3097 1187 3025 
Q 903 2953 641 2809 
L 641 3341 
Q 956 3463 1253 3523 
Q 1550 3584 1831 3584 
Q 2591 3584 2966 3190 
Q 3341 2797 3341 1997 
z
" transform="scale(0.015625)"/>
      </defs>
      <use xlink:href="#DejaVuSans-42"/>
      <use xlink:href="#DejaVuSans-6f" x="68.603516"/>
      <use xlink:href="#DejaVuSans-75" x="129.785156"/>
      <use xlink:href="#DejaVuSans-6e" x="193.164062"/>
      <use xlink:href="#DejaVuSans-64" x="256.542969"/>
      <use xlink:href="#DejaVuSans-69" x="320.019531"/>
      <use xlink:href="#DejaVuSans-6e" x="347.802734"/>
      <use xlink:href="#DejaVuSans-67" x="411.181641"/>
      <use xlink:href="#DejaVuSans-20" x="474.658203"/>
      <use xlink:href="#DejaVuSans-42" x="506.445312"/>
      <use xlink:href="#DejaVuSans-6f" x="575.048828"/>
      <use xlink:href="#DejaVuSans-78" x="633.105469"/>
      <use xlink:href="#DejaVuSans-20" x="692.285156"/>
      <use xlink:href="#DejaVuSans-41" x="724.072266"/>
      <use xlink:href="#DejaVuSans-72" x="792.480469"/>
      <use xlink:href="#DejaVuSans-65" x="831.34375"/>
      <use xlink:href="#DejaVuSans-61" x="892.867188"/>
     </g>
    </g>
   </g>
   <g id="matplotlib.axis_2">
    <g id="ytick_1">
     <g id="line2d_27">
      <defs>
       <path id="m54b44337d7" d="M 0 0 
L -3.5 0 
" style="stroke: #000000; stroke-width: 0.8"/>
      </defs>
      <g>
       <use xlink:href="#m54b44337d7" x="57.6" y="295.488" style="stroke: #000000; stroke-width: 0.8"/>
      </g>
     </g>
     <g id="text_5">
      <!-- 0.0 -->
      <g transform="translate(34.696875 299.287219)scale(0.1 -0.1)">
       <defs>
        <path id="DejaVuSans-2e" d="M 684 794 
L 1344 794 
L 1344 0 
L 684 0 
L 684 794 
z
" transform="scale(0.015625)"/>
       </defs>
       <use xlink:href="#DejaVuSans-30"/>
       <use xlink:href="#DejaVuSans-2e" x="63.623047"/>
       <use xlink:href="#DejaVuSans-30" x="95.410156"/>
      </g>
     </g>
    </g>
    <g id="ytick_2">
     <g id="line2d_28">
      <g>
       <use xlink:href="#m54b44337d7" x="57.6" y="246.768" style="stroke: #000000; stroke-width: 0.8"/>
      </g>
     </g>
     <g id="text_6">
      <!-- 0.2 -->
      <g transform="translate(34.696875 250.567219)scale(0.1 -0.1)">
       <use xlink:href="#DejaVuSans-30"/>
       <use xlink:href="#DejaVuSans-2e" x="63.623047"/>
       <use xlink:href="#DejaVuSans-32" x="95.410156"/>
      </g>
     </g>
    </g>
    <g id="ytick_3">
     <g id="line2d_29">
      <g>
       <use xlink:href="#m54b44337d7" x="57.6" y="198.048" style="stroke: #000000; stroke-width: 0.8"/>
      </g>
     </g>
     <g id="text_7">
      <!-- 0.4 -->
      <g transform="translate(34.696875 201.847219)scale(0.1 -0.1)">
       <use xlink:href="#DejaVuSans-30"/>
       <use xlink:href="#DejaVuSans-2e" x="63.623047"/>
       <use xlink:href="#DejaVuSans-34" x="95.410156"/>
      </g>
     </g>
    </g>
    <g id="ytick_4">
     <g id="line2d_30">
      <g>
       <use xlink:href="#m54b44337d7" x="57.6" y="149.328" style="stroke: #000000; stroke-width: 0.8"/>
      </g>
     </g>
     <g id="text_8">
      <!-- 0.6 -->
      <g transform="translate(34.696875 153.127219)scale(0.1 -0.1)">
       <defs>
        <path id="DejaVuSans-36" d="M 2113 2584 
Q 1688 2584 1439 2293 
Q 1191 2003 1191 1497 
Q 1191 994 1439 701 
Q 1688 409 2113 409 
Q 2538 409 2786 701 
Q 3034 994 3034 1497 
Q 3034 2003 2786 2293 
Q 2538 2584 2113 2584 
z
M 3366 4563 
L 3366 3988 
Q 3128 4100 2886 4159 
Q 2644 4219 2406 4219 
Q 1781 4219 1451 3797 
Q 1122 3375 1075 2522 
Q 1259 2794 1537 2939 
Q 1816 3084 2150 3084 
Q 2853 3084 3261 2657 
Q 3669 2231 3669 1497 
Q 3669 778 3244 343 
Q 2819 -91 2113 -91 
Q 1303 -91 875 529 
Q 447 1150 447 2328 
Q 447 3434 972 4092 
Q 1497 4750 2381 4750 
Q 2619 4750 2861 4703 
Q 3103 4656 3366 4563 
z
" transform="scale(0.015625)"/>
       </defs>
       <use xlink:href="#DejaVuSans-30"/>
       <use xlink:href="#DejaVuSans-2e" x="63.623047"/>
       <use xlink:href="#DejaVuSans-36" x="95.410156"/>
      </g>
     </g>
    </g>
    <g id="ytick_5">
     <g id="line2d_31">
      <g>
       <use xlink:href="#m54b44337d7" x="57.6" y="100.608" style="stroke: #000000; stroke-width: 0.8"/>
      </g>
     </g>
     <g id="text_9">
      <!-- 0.8 -->
      <g transform="translate(34.696875 104.407219)scale(0.1 -0.1)">
       <defs>
        <path id="DejaVuSans-38" d="M 2034 2216 
Q 1584 2216 1326 1975 
Q 1069 1734 1069 1313 
Q 1069 891 1326 650 
Q 1584 409 2034 409 
Q 2484 409 2743 651 
Q 3003 894 3003 1313 
Q 3003 1734 2745 1975 
Q 2488 2216 2034 2216 
z
M 1403 2484 
Q 997 2584 770 2862 
Q 544 3141 544 3541 
Q 544 4100 942 4425 
Q 1341 4750 2034 4750 
Q 2731 4750 3128 4425 
Q 3525 4100 3525 3541 
Q 3525 3141 3298 2862 
Q 3072 2584 2669 2484 
Q 3125 2378 3379 2068 
Q 3634 1759 3634 1313 
Q 3634 634 3220 271 
Q 2806 -91 2034 -91 
Q 1263 -91 848 271 
Q 434 634 434 1313 
Q 434 1759 690 2068 
Q 947 2378 1403 2484 
z
M 1172 3481 
Q 1172 3119 1398 2916 
Q 1625 2713 2034 2713 
Q 2441 2713 2670 2916 
Q 2900 3119 2900 3481 
Q 2900 3844 2670 4047 
Q 2441 4250 2034 4250 
Q 1625 4250 1398 4047 
Q 1172 3844 1172 3481 
z
" transform="scale(0.015625)"/>
       </defs>
       <use xlink:href="#DejaVuSans-30"/>
       <use xlink:href="#DejaVuSans-2e" x="63.623047"/>
       <use xlink:href="#DejaVuSans-38" x="95.410156"/>
      </g>
     </g>
    </g>
    <g id="ytick_6">
     <g id="line2d_32">
      <g>
       <use xlink:href="#m54b44337d7" x="57.6" y="51.888" style="stroke: #000000; stroke-width: 0.8"/>
      </g>
     </g>
     <g id="text_10">
      <!-- 1.0 -->
      <g transform="translate(34.696875 55.687219)scale(0.1 -0.1)">
       <use xlink:href="#DejaVuSans-31"/>
       <use xlink:href="#DejaVuSans-2e" x="63.623047"/>
       <use xlink:href="#DejaVuSans-30" x="95.410156"/>
      </g>
     </g>
    </g>
    <g id="text_11">
     <!-- eCDF -->
     <g transform="translate(28.617188 187.82175)rotate(-90)scale(0.1 -0.1)">
      <defs>
       <path id="DejaVuSans-43" d="M 4122 4306 
L 4122 3641 
Q 3803 3938 3442 4084 
Q 3081 4231 2675 4231 
Q 1875 4231 1450 3742 
Q 1025 3253 1025 2328 
Q 1025 1406 1450 917 
Q 1875 428 2675 428 
Q 3081 428 3442 575 
Q 3803 722 4122 1019 
L 4122 359 
Q 3791 134 3420 21 
Q 3050 -91 2638 -91 
Q 1578 -91 968 557 
Q 359 1206 359 2328 
Q 359 3453 968 4101 
Q 1578 4750 2638 4750 
Q 3056 4750 3426 4639 
Q 3797 4528 4122 4306 
z
" transform="scale(0.015625)"/>
       <path id="DejaVuSans-44" d="M 1259 4147 
L 1259 519 
L 2022 519 
Q 2988 519 3436 956 
Q 3884 1394 3884 2338 
Q 3884 3275 3436 3711 
Q 2988 4147 2022 4147 
L 1259 4147 
z
M 628 4666 
L 1925 4666 
Q 3281 4666 3915 4102 
Q 4550 3538 4550 2338 
Q 4550 1131 3912 565 
Q 3275 0 1925 0 
L 628 0 
L 628 4666 
z
" transform="scale(0.015625)"/>
       <path id="DejaVuSans-46" d="M 628 4666 
L 3309 4666 
L 3309 4134 
L 1259 4134 
L 1259 2759 
L 3109 2759 
L 3109 2228 
L 1259 2228 
L 1259 0 
L 628 0 
L 628 4666 
z
" transform="scale(0.015625)"/>
      </defs>
      <use xlink:href="#DejaVuSans-65"/>
      <use xlink:href="#DejaVuSans-43" x="61.523438"/>
      <use xlink:href="#DejaVuSans-44" x="131.347656"/>
      <use xlink:href="#DejaVuSans-46" x="208.349609"/>
     </g>
    </g>
   </g>
   <g id="line2d_33">
    <path d="M 97.375444 295.488 
L 97.375444 293.808 
L 98.942177 292.128 
L 99.454197 290.448 
L 106.478065 288.768 
L 109.808414 287.088 
L 113.652885 283.728 
L 113.652885 282.048 
L 115.23248 280.368 
L 117.366963 278.688 
L 117.583829 277.008 
L 118.122107 275.328 
L 118.122107 273.648 
L 119.107351 271.968 
L 119.182379 268.608 
L 121.156573 266.928 
L 121.742967 265.248 
L 121.781401 263.568 
L 122.240427 261.888 
L 122.977886 258.528 
L 124.706623 255.168 
L 125.130054 253.488 
L 125.130054 251.808 
L 125.596561 250.128 
L 127.422194 248.448 
L 128.311734 246.768 
L 128.750914 245.088 
L 128.750914 241.728 
L 129.258688 240.048 
L 129.372006 238.368 
L 130.612668 236.688 
L 131.311502 235.008 
L 131.78538 233.328 
L 133.487219 231.648 
L 134.932361 229.968 
L 134.932361 228.288 
L 135.087633 226.608 
L 135.126379 224.928 
L 137.769898 221.568 
L 138.319449 219.888 
L 139.757393 218.208 
L 139.828266 216.528 
L 140.321717 214.848 
L 140.461855 211.488 
L 141.501129 209.808 
L 143.188787 208.128 
L 143.409763 206.448 
L 144.716427 204.768 
L 145.622685 203.088 
L 147.030622 201.408 
L 147.030622 198.048 
L 150.03039 196.368 
L 150.17597 194.688 
L 151.126803 191.328 
L 151.751254 189.648 
L 152.032658 187.968 
L 154.499612 186.288 
L 155.559883 182.928 
L 156.298156 181.248 
L 156.855792 177.888 
L 159.29433 176.208 
L 160.894834 174.528 
L 164.214575 172.848 
L 164.542025 171.168 
L 165.780373 167.808 
L 165.888249 164.448 
L 167.896855 162.768 
L 169.329192 159.408 
L 170.814115 157.728 
L 172.463355 156.048 
L 174.331227 154.368 
L 174.494087 152.688 
L 174.769795 151.008 
L 176.311901 147.648 
L 176.40018 145.968 
L 176.944218 144.288 
L 177.964318 142.608 
L 178.433098 139.248 
L 181.522356 137.568 
L 182.000189 135.888 
L 182.211171 134.208 
L 182.708879 132.528 
L 182.787035 130.848 
L 184.879434 129.168 
L 188.186998 127.488 
L 188.715437 125.808 
L 191.110888 124.128 
L 194.497976 117.408 
L 197.177436 115.728 
L 201.066744 114.048 
L 203.01474 112.368 
L 207.358331 109.008 
L 210.46349 105.648 
L 211.337549 103.968 
L 213.565581 102.288 
L 216.357366 100.608 
L 216.634694 98.928 
L 225.514309 97.248 
L 229.591598 95.568 
L 230.246951 93.888 
L 237.83868 92.208 
L 241.253429 90.528 
L 251.890495 88.848 
L 253.930328 85.488 
L 255.203717 83.808 
L 265.270673 82.128 
L 267.877507 80.448 
L 271.521 78.768 
L 271.790842 77.088 
L 274.228122 75.408 
L 279.103398 73.728 
L 280.284211 72.048 
L 281.619633 70.368 
L 308.111665 68.688 
L 310.846757 67.008 
L 324.821033 65.328 
L 330.507695 63.648 
L 337.821913 61.968 
L 341.691056 60.288 
L 355.025633 58.608 
L 355.122291 56.928 
L 368.916132 55.248 
L 379.594124 53.568 
L 379.594124 53.568 
" clip-path="url(#p67cdede0f5)" style="fill: none; stroke-dasharray: 1.5,2.475; stroke-dashoffset: 0; stroke: #1f77b4; stroke-width: 1.5"/>
   </g>
   <g id="line2d_34">
    <path d="M 73.832727 295.488 
L 101.09408 293.474777 
L 104.08435 291.461554 
L 113.846903 289.448331 
L 116.379818 287.435107 
L 119.182379 285.421884 
L 121.464549 283.408661 
L 121.742967 281.395438 
L 122.019915 279.382215 
L 125.596561 277.368992 
L 126.765652 275.355769 
L 129.330828 273.342545 
L 130.809281 271.329322 
L 131.159821 269.316099 
L 131.357762 267.302876 
L 131.688798 265.289653 
L 132.982732 263.27643 
L 133.809717 261.263207 
L 134.036175 259.249983 
L 135.126379 257.23676 
L 137.544347 255.223537 
L 138.48118 253.210314 
L 140.110806 251.197091 
L 141.363743 249.183868 
L 141.569688 247.170645 
L 141.615344 245.157421 
L 141.895433 243.144198 
L 142.140378 241.130975 
L 144.110697 239.117752 
L 148.641828 237.104529 
L 150.35738 235.091306 
L 150.921768 233.078083 
L 151.694792 231.06486 
L 152.973048 229.051636 
L 154.842755 227.038413 
L 154.880744 225.02519 
L 155.154618 223.011967 
L 155.179474 220.998744 
L 155.664742 218.985521 
L 156.56699 216.972298 
L 157.301905 214.959074 
L 157.419628 212.945851 
L 158.887299 210.932628 
L 159.355391 208.919405 
L 159.753316 206.906182 
L 160.189518 204.892959 
L 161.317981 202.879736 
L 161.390282 200.866512 
L 164.826267 198.853289 
L 165.159648 196.840066 
L 167.130686 194.826843 
L 167.192043 192.81362 
L 167.867213 190.800397 
L 168.025452 188.787174 
L 168.669036 186.77395 
L 168.957818 184.760727 
L 170.952294 182.747504 
L 172.214106 180.734281 
L 173.124699 178.721058 
L 173.405601 176.707835 
L 180.260963 174.694612 
L 181.522356 172.681388 
L 181.717554 170.668165 
L 184.391163 168.654942 
L 185.74774 166.641719 
L 185.821502 164.628496 
L 185.834902 162.615273 
L 189.130214 160.60205 
L 190.220351 158.588826 
L 191.39788 156.575603 
L 192.883029 154.56238 
L 195.044924 152.549157 
L 197.023551 150.535934 
L 197.83623 148.522711 
L 197.843209 146.509488 
L 199.639637 144.496264 
L 199.655975 142.483041 
L 200.164742 140.469818 
L 200.693306 138.456595 
L 201.770786 136.443372 
L 201.887214 134.430149 
L 203.33249 132.416926 
L 204.59397 130.403702 
L 204.601779 128.390479 
L 209.979879 126.377256 
L 210.016047 124.364033 
L 212.227948 122.35081 
L 215.662784 120.337587 
L 217.397448 118.324364 
L 219.596632 116.31114 
L 220.079901 114.297917 
L 222.885529 112.284694 
L 227.488393 110.271471 
L 228.489541 108.258248 
L 229.251161 106.245025 
L 229.587523 104.231802 
L 234.670988 102.218579 
L 238.562372 100.205355 
L 241.202136 98.192132 
L 243.159744 96.178909 
L 243.287033 94.165686 
L 245.143609 92.152463 
L 246.64229 90.13924 
L 246.711342 88.126017 
L 250.224721 86.112793 
L 251.686368 84.09957 
L 253.795142 82.086347 
L 254.025847 80.073124 
L 254.450419 78.059901 
L 259.290309 76.046678 
L 264.116933 74.033455 
L 266.54008 72.020231 
L 275.396592 70.007008 
L 280.318725 67.993785 
L 291.968338 65.980562 
L 292.623268 63.967339 
L 304.528693 61.954116 
L 307.865495 59.940893 
L 323.103503 57.927669 
L 351.37732 55.914446 
L 398.487273 53.901223 
" clip-path="url(#p67cdede0f5)" style="fill: none; stroke-dasharray: 1.5,2.475; stroke-dashoffset: 0; stroke: #ff7f0e; stroke-width: 1.5"/>
   </g>
   <g id="patch_3">
    <path d="M 57.6 307.584 
L 57.6 41.472 
" style="fill: none; stroke: #000000; stroke-width: 0.8; stroke-linejoin: miter; stroke-linecap: square"/>
   </g>
   <g id="patch_4">
    <path d="M 414.72 307.584 
L 414.72 41.472 
" style="fill: none; stroke: #000000; stroke-width: 0.8; stroke-linejoin: miter; stroke-linecap: square"/>
   </g>
   <g id="patch_5">
    <path d="M 57.6 307.584 
L 414.72 307.584 
" style="fill: none; stroke: #000000; stroke-width: 0.8; stroke-linejoin: miter; stroke-linecap: square"/>
   </g>
   <g id="patch_6">
    <path d="M 57.6 41.472 
L 414.72 41.472 
" style="fill: none; stroke: #000000; stroke-width: 0.8; stroke-linejoin: miter; stroke-linecap: square"/>
   </g>
  </g>
  <g id="axes_2">
   <g id="matplotlib.axis_3">
    <g id="ytick_7">
     <g id="line2d_35">
      <path d="M 57.6 295.489191 
L 414.72 295.489191 
" clip-path="url(#p67cdede0f5)" style="fill: none; stroke-dasharray: 0.8,1.32; stroke-dashoffset: 0; stroke: #b0b0b0; stroke-width: 0.8"/>
     </g>
     <g id="line2d_36">
      <defs>
       <path id="m9f7084f53d" d="M 0 0 
L 3.5 0 
" style="stroke: #000000; stroke-width: 0.8"/>
      </defs>
      <g>
       <use xlink:href="#m9f7084f53d" x="414.72" y="295.489191" style="stroke: #000000; stroke-width: 0.8"/>
      </g>
     </g>
     <g id="text_12">
      <!-- 0.00 -->
      <g transform="translate(421.72 299.28841)scale(0.1 -0.1)">
       <use xlink:href="#DejaVuSans-30"/>
       <use xlink:href="#DejaVuSans-2e" x="63.623047"/>
       <use xlink:href="#DejaVuSans-30" x="95.410156"/>
       <use xlink:href="#DejaVuSans-30" x="159.033203"/>
      </g>
     </g>
    </g>
    <g id="ytick_8">
     <g id="line2d_37">
      <path d="M 57.6 260.508459 
L 414.72 260.508459 
" clip-path="url(#p67cdede0f5)" style="fill: none; stroke-dasharray: 0.8,1.32; stroke-dashoffset: 0; stroke: #b0b0b0; stroke-width: 0.8"/>
     </g>
     <g id="line2d_38">
      <g>
       <use xlink:href="#m9f7084f53d" x="414.72" y="260.508459" style="stroke: #000000; stroke-width: 0.8"/>
      </g>
     </g>
     <g id="text_13">
      <!-- 0.02 -->
      <g transform="translate(421.72 264.307678)scale(0.1 -0.1)">
       <use xlink:href="#DejaVuSans-30"/>
       <use xlink:href="#DejaVuSans-2e" x="63.623047"/>
       <use xlink:href="#DejaVuSans-30" x="95.410156"/>
       <use xlink:href="#DejaVuSans-32" x="159.033203"/>
      </g>
     </g>
    </g>
    <g id="ytick_9">
     <g id="line2d_39">
      <path d="M 57.6 225.527727 
L 414.72 225.527727 
" clip-path="url(#p67cdede0f5)" style="fill: none; stroke-dasharray: 0.8,1.32; stroke-dashoffset: 0; stroke: #b0b0b0; stroke-width: 0.8"/>
     </g>
     <g id="line2d_40">
      <g>
       <use xlink:href="#m9f7084f53d" x="414.72" y="225.527727" style="stroke: #000000; stroke-width: 0.8"/>
      </g>
     </g>
     <g id="text_14">
      <!-- 0.04 -->
      <g transform="translate(421.72 229.326945)scale(0.1 -0.1)">
       <use xlink:href="#DejaVuSans-30"/>
       <use xlink:href="#DejaVuSans-2e" x="63.623047"/>
       <use xlink:href="#DejaVuSans-30" x="95.410156"/>
       <use xlink:href="#DejaVuSans-34" x="159.033203"/>
      </g>
     </g>
    </g>
    <g id="ytick_10">
     <g id="line2d_41">
      <path d="M 57.6 190.546994 
L 414.72 190.546994 
" clip-path="url(#p67cdede0f5)" style="fill: none; stroke-dasharray: 0.8,1.32; stroke-dashoffset: 0; stroke: #b0b0b0; stroke-width: 0.8"/>
     </g>
     <g id="line2d_42">
      <g>
       <use xlink:href="#m9f7084f53d" x="414.72" y="190.546994" style="stroke: #000000; stroke-width: 0.8"/>
      </g>
     </g>
     <g id="text_15">
      <!-- 0.06 -->
      <g transform="translate(421.72 194.346213)scale(0.1 -0.1)">
       <use xlink:href="#DejaVuSans-30"/>
       <use xlink:href="#DejaVuSans-2e" x="63.623047"/>
       <use xlink:href="#DejaVuSans-30" x="95.410156"/>
       <use xlink:href="#DejaVuSans-36" x="159.033203"/>
      </g>
     </g>
    </g>
    <g id="ytick_11">
     <g id="line2d_43">
      <path d="M 57.6 155.566262 
L 414.72 155.566262 
" clip-path="url(#p67cdede0f5)" style="fill: none; stroke-dasharray: 0.8,1.32; stroke-dashoffset: 0; stroke: #b0b0b0; stroke-width: 0.8"/>
     </g>
     <g id="line2d_44">
      <g>
       <use xlink:href="#m9f7084f53d" x="414.72" y="155.566262" style="stroke: #000000; stroke-width: 0.8"/>
      </g>
     </g>
     <g id="text_16">
      <!-- 0.08 -->
      <g transform="translate(421.72 159.365481)scale(0.1 -0.1)">
       <use xlink:href="#DejaVuSans-30"/>
       <use xlink:href="#DejaVuSans-2e" x="63.623047"/>
       <use xlink:href="#DejaVuSans-30" x="95.410156"/>
       <use xlink:href="#DejaVuSans-38" x="159.033203"/>
      </g>
     </g>
    </g>
    <g id="ytick_12">
     <g id="line2d_45">
      <path d="M 57.6 120.58553 
L 414.72 120.58553 
" clip-path="url(#p67cdede0f5)" style="fill: none; stroke-dasharray: 0.8,1.32; stroke-dashoffset: 0; stroke: #b0b0b0; stroke-width: 0.8"/>
     </g>
     <g id="line2d_46">
      <g>
       <use xlink:href="#m9f7084f53d" x="414.72" y="120.58553" style="stroke: #000000; stroke-width: 0.8"/>
      </g>
     </g>
     <g id="text_17">
      <!-- 0.10 -->
      <g transform="translate(421.72 124.384748)scale(0.1 -0.1)">
       <use xlink:href="#DejaVuSans-30"/>
       <use xlink:href="#DejaVuSans-2e" x="63.623047"/>
       <use xlink:href="#DejaVuSans-31" x="95.410156"/>
       <use xlink:href="#DejaVuSans-30" x="159.033203"/>
      </g>
     </g>
    </g>
    <g id="ytick_13">
     <g id="line2d_47">
      <path d="M 57.6 85.604797 
L 414.72 85.604797 
" clip-path="url(#p67cdede0f5)" style="fill: none; stroke-dasharray: 0.8,1.32; stroke-dashoffset: 0; stroke: #b0b0b0; stroke-width: 0.8"/>
     </g>
     <g id="line2d_48">
      <g>
       <use xlink:href="#m9f7084f53d" x="414.72" y="85.604797" style="stroke: #000000; stroke-width: 0.8"/>
      </g>
     </g>
     <g id="text_18">
      <!-- 0.12 -->
      <g transform="translate(421.72 89.404016)scale(0.1 -0.1)">
       <use xlink:href="#DejaVuSans-30"/>
       <use xlink:href="#DejaVuSans-2e" x="63.623047"/>
       <use xlink:href="#DejaVuSans-31" x="95.410156"/>
       <use xlink:href="#DejaVuSans-32" x="159.033203"/>
      </g>
     </g>
    </g>
    <g id="ytick_14">
     <g id="line2d_49">
      <path d="M 57.6 50.624065 
L 414.72 50.624065 
" clip-path="url(#p67cdede0f5)" style="fill: none; stroke-dasharray: 0.8,1.32; stroke-dashoffset: 0; stroke: #b0b0b0; stroke-width: 0.8"/>
     </g>
     <g id="line2d_50">
      <g>
       <use xlink:href="#m9f7084f53d" x="414.72" y="50.624065" style="stroke: #000000; stroke-width: 0.8"/>
      </g>
     </g>
     <g id="text_19">
      <!-- 0.14 -->
      <g transform="translate(421.72 54.423284)scale(0.1 -0.1)">
       <use xlink:href="#DejaVuSans-30"/>
       <use xlink:href="#DejaVuSans-2e" x="63.623047"/>
       <use xlink:href="#DejaVuSans-31" x="95.410156"/>
       <use xlink:href="#DejaVuSans-34" x="159.033203"/>
      </g>
     </g>
    </g>
    <g id="text_20">
     <!-- ePDF -->
     <g transform="translate(455.584063 187.345187)rotate(-90)scale(0.1 -0.1)">
      <defs>
       <path id="DejaVuSans-50" d="M 1259 4147 
L 1259 2394 
L 2053 2394 
Q 2494 2394 2734 2622 
Q 2975 2850 2975 3272 
Q 2975 3691 2734 3919 
Q 2494 4147 2053 4147 
L 1259 4147 
z
M 628 4666 
L 2053 4666 
Q 2838 4666 3239 4311 
Q 3641 3956 3641 3272 
Q 3641 2581 3239 2228 
Q 2838 1875 2053 1875 
L 1259 1875 
L 1259 0 
L 628 0 
L 628 4666 
z
" transform="scale(0.015625)"/>
      </defs>
      <use xlink:href="#DejaVuSans-65"/>
      <use xlink:href="#DejaVuSans-50" x="61.523438"/>
      <use xlink:href="#DejaVuSans-44" x="121.826172"/>
      <use xlink:href="#DejaVuSans-46" x="198.828125"/>
     </g>
    </g>
   </g>
   <g id="line2d_51">
    <path d="M 98.942177 280.41129 
L 99.454197 278.466617 
L 106.478065 293.52793 
L 109.808414 292.108664 
L 111.672211 291.676268 
L 115.23248 291.625071 
L 117.366963 267.876704 
L 117.583829 270.502954 
L 119.107351 216.620166 
L 121.156573 286.828295 
L 121.742967 147.739077 
L 121.781401 149.73614 
L 122.240427 279.503373 
L 122.569466 279.004019 
L 122.977886 283.460222 
L 123.825359 288.777552 
L 124.706623 284.339036 
L 125.596561 285.236218 
L 127.422194 290.463224 
L 128.311734 285.437257 
L 129.258688 255.981172 
L 129.372006 252.898761 
L 130.612668 289.376462 
L 131.311502 286.284005 
L 131.78538 286.579522 
L 133.487219 292.391368 
L 135.087633 192.959459 
L 135.126379 178.306211 
L 136.389214 292.020233 
L 137.769898 288.826911 
L 138.319449 288.818362 
L 139.757393 237.905966 
L 139.828266 241.639542 
L 140.321717 257.413032 
L 140.418102 215.43924 
L 140.461855 202.689731 
L 141.501129 292.071534 
L 143.188787 279.240535 
L 143.409763 279.549695 
L 144.716427 291.746757 
L 145.622685 291.84111 
L 150.03039 272.455901 
L 150.17597 275.385322 
L 150.610304 288.056852 
L 151.126803 289.336189 
L 151.751254 285.482947 
L 152.032658 284.499076 
L 154.499612 290.310922 
L 155.032425 289.458031 
L 155.559883 290.192046 
L 156.298156 284.034633 
L 156.525603 283.549471 
L 156.855792 287.056276 
L 159.29433 293.909162 
L 160.894834 293.983919 
L 164.214575 287.99769 
L 164.542025 288.61776 
L 165.128419 291.202337 
L 165.780373 262.518846 
L 165.852315 235.177584 
L 165.888249 224.341197 
L 167.896855 292.400119 
L 168.566733 292.007466 
L 169.329192 292.807742 
L 170.814115 293.967677 
L 172.463355 294.171584 
L 174.331227 282.928376 
L 174.494087 283.988596 
L 174.769795 288.855085 
L 175.540535 292.683663 
L 176.311901 273.572241 
L 176.40018 274.174767 
L 176.944218 292.234175 
L 177.964318 288.663269 
L 178.220535 286.570384 
L 178.433098 286.402243 
L 181.522356 291.934273 
L 182.000189 287.988902 
L 182.211171 287.994328 
L 182.708879 274.134842 
L 182.787035 272.184855 
L 184.879434 294.738814 
L 188.186998 292.668144 
L 188.715437 292.732647 
L 191.110888 293.866221 
L 191.928015 293.519531 
L 192.718767 293.611357 
L 193.600024 293.764903 
L 194.497976 294.076261 
L 197.177436 295.016927 
L 201.066744 294.928224 
L 203.01474 294.863247 
L 205.199623 294.922974 
L 207.358331 294.835189 
L 208.954827 294.751354 
L 210.46349 294.418857 
L 211.337549 294.443061 
L 213.565581 295.058385 
L 216.357366 292.212866 
L 216.634694 292.011667 
L 225.514309 295.324678 
L 229.591598 294.458296 
L 230.246951 294.397676 
L 237.83868 295.333328 
L 241.253429 295.331611 
L 251.890495 295.010625 
L 252.850088 294.99903 
L 253.930328 295.070034 
L 255.203717 295.146389 
L 265.270673 295.366197 
L 267.877507 295.361991 
L 271.521 294.289742 
L 271.790842 294.316689 
L 274.228122 295.374173 
L 279.103398 295.275642 
L 280.284211 295.253378 
L 281.619633 295.279555 
L 308.111665 295.433916 
L 310.846757 295.434906 
L 324.821033 295.471758 
L 330.507695 295.470915 
L 337.821913 295.468463 
L 341.691056 295.468371 
L 355.025633 294.763701 
L 355.122291 294.762212 
L 368.916132 295.484659 
L 379.594124 295.484605 
" clip-path="url(#p67cdede0f5)" style="fill: none; stroke: #1f77b4; stroke-width: 1.5; stroke-linecap: square"/>
   </g>
   <g id="line2d_52">
    <path d="M 73.832727 294.985596 
L 101.09408 292.385585 
L 104.08435 292.550137 
L 113.846903 292.77041 
L 116.379818 292.463911 
L 119.182379 292.454621 
L 121.464549 272.000063 
L 121.742967 269.470465 
L 122.019915 271.142481 
L 125.596561 290.762698 
L 126.765652 290.78223 
L 129.330828 291.945927 
L 130.809281 280.755004 
L 131.159821 269.808543 
L 131.357762 269.642203 
L 131.688798 280.101608 
L 132.982732 289.453109 
L 133.809717 274.158039 
L 134.036175 273.615686 
L 135.126379 291.18883 
L 137.544347 290.802588 
L 138.48118 290.725357 
L 140.110806 291.845726 
L 141.363743 274.265803 
L 141.569688 202.40873 
L 141.615344 199.769537 
L 141.895433 276.580525 
L 142.140378 277.355337 
L 144.110697 293.468076 
L 148.641828 293.433158 
L 150.35738 289.340781 
L 150.921768 288.971082 
L 151.694792 290.974489 
L 152.973048 292.75732 
L 154.842755 196.313846 
L 154.880744 204.898483 
L 155.154618 153.400913 
L 155.179474 148.818937 
L 155.664742 288.927278 
L 156.56699 290.854458 
L 157.301905 267.985348 
L 157.419628 266.455188 
L 158.887299 289.171056 
L 159.355391 287.238103 
L 159.753316 287.05423 
L 160.189518 288.859807 
L 161.317981 251.184841 
L 161.390282 249.428681 
L 164.826267 286.764589 
L 165.159648 287.109624 
L 167.130686 247.405762 
L 167.192043 249.661597 
L 167.867213 279.321006 
L 168.025452 279.365167 
L 168.669036 287.025991 
L 168.957818 286.372521 
L 170.952294 293.578006 
L 172.214106 292.818354 
L 173.124699 287.429262 
L 173.405601 286.194107 
L 180.260963 293.879954 
L 181.522356 285.014827 
L 181.717554 284.391153 
L 184.391163 294.155813 
L 185.74774 268.006463 
L 185.821502 156.500268 
L 185.834902 137.107355 
L 189.130214 293.978013 
L 190.220351 293.754037 
L 191.39788 294.00648 
L 192.883029 294.387897 
L 195.044924 294.623445 
L 197.023551 293.74794 
L 197.83623 54.713449 
L 197.843209 53.568 
L 199.639637 196.17922 
L 199.655975 198.272908 
L 200.164742 292.360209 
L 200.693306 292.951025 
L 201.770786 283.181916 
L 201.887214 282.911269 
L 203.33249 294.352634 
L 204.59397 105.865822 
L 204.601779 104.947553 
L 209.979879 258.578965 
L 210.016047 258.895692 
L 212.227948 294.982216 
L 215.662784 294.916297 
L 217.397448 294.875915 
L 219.596632 293.511643 
L 220.079901 293.457859 
L 222.885529 295.164504 
L 227.488393 294.673155 
L 228.489541 294.378887 
L 229.251161 293.200377 
L 229.587523 292.881616 
L 234.670988 295.296934 
L 238.562372 295.234657 
L 241.202136 295.153853 
L 243.159744 290.207352 
L 243.287033 290.211389 
L 245.143609 295.070831 
L 246.64229 286.222915 
L 246.711342 285.98768 
L 250.224721 295.139931 
L 251.686368 295.123571 
L 253.795142 293.190843 
L 254.025847 293.372425 
L 254.450419 294.222473 
L 259.290309 295.380164 
L 264.116933 295.327142 
L 266.54008 295.324641 
L 275.396592 295.424919 
L 280.318725 295.426958 
L 291.968338 295.085138 
L 292.623268 295.080254 
L 304.528693 295.435421 
L 307.865495 295.432906 
L 323.103503 295.4794 
L 351.37732 295.485694 
L 398.487273 295.488 
" clip-path="url(#p67cdede0f5)" style="fill: none; stroke: #ff7f0e; stroke-width: 1.5; stroke-linecap: square"/>
   </g>
   <g id="patch_7">
    <path d="M 57.6 307.584 
L 57.6 41.472 
" style="fill: none; stroke: #000000; stroke-width: 0.8; stroke-linejoin: miter; stroke-linecap: square"/>
   </g>
   <g id="patch_8">
    <path d="M 414.72 307.584 
L 414.72 41.472 
" style="fill: none; stroke: #000000; stroke-width: 0.8; stroke-linejoin: miter; stroke-linecap: square"/>
   </g>
   <g id="patch_9">
    <path d="M 57.6 307.584 
L 414.72 307.584 
" style="fill: none; stroke: #000000; stroke-width: 0.8; stroke-linejoin: miter; stroke-linecap: square"/>
   </g>
   <g id="patch_10">
    <path d="M 57.6 41.472 
L 414.72 41.472 
" style="fill: none; stroke: #000000; stroke-width: 0.8; stroke-linejoin: miter; stroke-linecap: square"/>
   </g>
   <g id="legend_1">
    <g id="patch_11">
     <path d="M 351.7325 78.82825 
L 407.72 78.82825 
Q 409.72 78.82825 409.72 76.82825 
L 409.72 48.472 
Q 409.72 46.472 407.72 46.472 
L 351.7325 46.472 
Q 349.7325 46.472 349.7325 48.472 
L 349.7325 76.82825 
Q 349.7325 78.82825 351.7325 78.82825 
z
" style="fill: #ffffff; opacity: 0.8; stroke: #cccccc; stroke-linejoin: miter"/>
    </g>
    <g id="line2d_53">
     <path d="M 353.7325 54.570437 
L 363.7325 54.570437 
L 373.7325 54.570437 
" style="fill: none; stroke: #1f77b4; stroke-width: 1.5; stroke-linecap: square"/>
    </g>
    <g id="text_21">
     <!-- Train -->
     <g transform="translate(381.7325 58.070437)scale(0.1 -0.1)">
      <defs>
       <path id="DejaVuSans-54" d="M -19 4666 
L 3928 4666 
L 3928 4134 
L 2272 4134 
L 2272 0 
L 1638 0 
L 1638 4134 
L -19 4134 
L -19 4666 
z
" transform="scale(0.015625)"/>
      </defs>
      <use xlink:href="#DejaVuSans-54"/>
      <use xlink:href="#DejaVuSans-72" x="46.333984"/>
      <use xlink:href="#DejaVuSans-61" x="87.447266"/>
      <use xlink:href="#DejaVuSans-69" x="148.726562"/>
      <use xlink:href="#DejaVuSans-6e" x="176.509766"/>
     </g>
    </g>
    <g id="line2d_54">
     <path d="M 353.7325 69.248562 
L 363.7325 69.248562 
L 373.7325 69.248562 
" style="fill: none; stroke: #ff7f0e; stroke-width: 1.5; stroke-linecap: square"/>
    </g>
    <g id="text_22">
     <!-- Test -->
     <g transform="translate(381.7325 72.748562)scale(0.1 -0.1)">
      <defs>
       <path id="DejaVuSans-73" d="M 2834 3397 
L 2834 2853 
Q 2591 2978 2328 3040 
Q 2066 3103 1784 3103 
Q 1356 3103 1142 2972 
Q 928 2841 928 2578 
Q 928 2378 1081 2264 
Q 1234 2150 1697 2047 
L 1894 2003 
Q 2506 1872 2764 1633 
Q 3022 1394 3022 966 
Q 3022 478 2636 193 
Q 2250 -91 1575 -91 
Q 1294 -91 989 -36 
Q 684 19 347 128 
L 347 722 
Q 666 556 975 473 
Q 1284 391 1588 391 
Q 1994 391 2212 530 
Q 2431 669 2431 922 
Q 2431 1156 2273 1281 
Q 2116 1406 1581 1522 
L 1381 1569 
Q 847 1681 609 1914 
Q 372 2147 372 2553 
Q 372 3047 722 3315 
Q 1072 3584 1716 3584 
Q 2034 3584 2315 3537 
Q 2597 3491 2834 3397 
z
" transform="scale(0.015625)"/>
       <path id="DejaVuSans-74" d="M 1172 4494 
L 1172 3500 
L 2356 3500 
L 2356 3053 
L 1172 3053 
L 1172 1153 
Q 1172 725 1289 603 
Q 1406 481 1766 481 
L 2356 481 
L 2356 0 
L 1766 0 
Q 1100 0 847 248 
Q 594 497 594 1153 
L 594 3053 
L 172 3053 
L 172 3500 
L 594 3500 
L 594 4494 
L 1172 4494 
z
" transform="scale(0.015625)"/>
      </defs>
      <use xlink:href="#DejaVuSans-54"/>
      <use xlink:href="#DejaVuSans-65" x="44.083984"/>
      <use xlink:href="#DejaVuSans-73" x="105.607422"/>
      <use xlink:href="#DejaVuSans-74" x="157.707031"/>
     </g>
    </g>
   </g>
  </g>
 </g>
 <defs>
  <clipPath id="p67cdede0f5">
   <rect x="57.6" y="41.472" width="357.12" height="266.112"/>
  </clipPath>
 </defs>
</svg>
