<?xml version="1.0" encoding="utf-8" standalone="no"?>
<!DOCTYPE svg PUBLIC "-//W3C//DTD SVG 1.1//EN"
  "http://www.w3.org/Graphics/SVG/1.1/DTD/svg11.dtd">
<svg xmlns:xlink="http://www.w3.org/1999/xlink" width="460.8pt" height="345.6pt" viewBox="0 0 460.8 345.6" xmlns="http://www.w3.org/2000/svg" version="1.1">
 <metadata>
  <rdf:RDF xmlns:dc="http://purl.org/dc/elements/1.1/" xmlns:cc="http://creativecommons.org/ns#" xmlns:rdf="http://www.w3.org/1999/02/22-rdf-syntax-ns#">
   <cc:Work>
    <dc:type rdf:resource="http://purl.org/dc/dcmitype/StillImage"/>
    <dc:date>2023-01-16T16:24:56.538260</dc:date>
    <dc:format>image/svg+xml</dc:format>
    <dc:creator>
     <cc:Agent>
      <dc:title>Matplotlib v3.5.2, https://matplotlib.org/</dc:title>
     </cc:Agent>
    </dc:creator>
   </cc:Work>
  </rdf:RDF>
 </metadata>
 <defs>
  <style type="text/css">*{stroke-linejoin: round; stroke-linecap: butt}</style>
 </defs>
 <g id="figure_1">
  <g id="patch_1">
   <path d="M 0 345.6 
L 460.8 345.6 
L 460.8 0 
L 0 0 
z
" style="fill: #ffffff"/>
  </g>
  <g id="axes_1">
   <g id="patch_2">
    <path d="M 57.6 307.584 
L 414.72 307.584 
L 414.72 41.472 
L 57.6 41.472 
z
" style="fill: #eaeaf2"/>
   </g>
   <g id="matplotlib.axis_1">
    <g id="xtick_1">
     <g id="line2d_1">
      <path d="M 119.182379 307.584 
L 119.182379 41.472 
" clip-path="url(#pc6abad81b9)" style="fill: none; stroke: #ffffff; stroke-linecap: round"/>
     </g>
     <g id="text_1">
      <!-- $\mathdefault{10^{2}}$ -->
      <g style="fill: #262626" transform="translate(110.547379 328.42775)scale(0.11 -0.11)">
       <defs>
        <path id="ArialMT-31" d="M 2384 0 
L 1822 0 
L 1822 3584 
Q 1619 3391 1289 3197 
Q 959 3003 697 2906 
L 697 3450 
Q 1169 3672 1522 3987 
Q 1875 4303 2022 4600 
L 2384 4600 
L 2384 0 
z
" transform="scale(0.015625)"/>
        <path id="ArialMT-30" d="M 266 2259 
Q 266 3072 433 3567 
Q 600 4063 929 4331 
Q 1259 4600 1759 4600 
Q 2128 4600 2406 4451 
Q 2684 4303 2865 4023 
Q 3047 3744 3150 3342 
Q 3253 2941 3253 2259 
Q 3253 1453 3087 958 
Q 2922 463 2592 192 
Q 2263 -78 1759 -78 
Q 1097 -78 719 397 
Q 266 969 266 2259 
z
M 844 2259 
Q 844 1131 1108 757 
Q 1372 384 1759 384 
Q 2147 384 2411 759 
Q 2675 1134 2675 2259 
Q 2675 3391 2411 3762 
Q 2147 4134 1753 4134 
Q 1366 4134 1134 3806 
Q 844 3388 844 2259 
z
" transform="scale(0.015625)"/>
        <path id="ArialMT-32" d="M 3222 541 
L 3222 0 
L 194 0 
Q 188 203 259 391 
Q 375 700 629 1000 
Q 884 1300 1366 1694 
Q 2113 2306 2375 2664 
Q 2638 3022 2638 3341 
Q 2638 3675 2398 3904 
Q 2159 4134 1775 4134 
Q 1369 4134 1125 3890 
Q 881 3647 878 3216 
L 300 3275 
Q 359 3922 746 4261 
Q 1134 4600 1788 4600 
Q 2447 4600 2831 4234 
Q 3216 3869 3216 3328 
Q 3216 3053 3103 2787 
Q 2991 2522 2730 2228 
Q 2469 1934 1863 1422 
Q 1356 997 1212 845 
Q 1069 694 975 541 
L 3222 541 
z
" transform="scale(0.015625)"/>
       </defs>
       <use xlink:href="#ArialMT-31" transform="translate(0 0.99375)"/>
       <use xlink:href="#ArialMT-30" transform="translate(55.615234 0.99375)"/>
       <use xlink:href="#ArialMT-32" transform="translate(112.972813 70.6875)scale(0.7)"/>
      </g>
     </g>
    </g>
    <g id="xtick_2">
     <g id="line2d_2">
      <path d="M 240.025834 307.584 
L 240.025834 41.472 
" clip-path="url(#pc6abad81b9)" style="fill: none; stroke: #ffffff; stroke-linecap: round"/>
     </g>
     <g id="text_2">
      <!-- $\mathdefault{10^{3}}$ -->
      <g style="fill: #262626" transform="translate(231.390834 328.42775)scale(0.11 -0.11)">
       <defs>
        <path id="ArialMT-33" d="M 269 1209 
L 831 1284 
Q 928 806 1161 595 
Q 1394 384 1728 384 
Q 2125 384 2398 659 
Q 2672 934 2672 1341 
Q 2672 1728 2419 1979 
Q 2166 2231 1775 2231 
Q 1616 2231 1378 2169 
L 1441 2663 
Q 1497 2656 1531 2656 
Q 1891 2656 2178 2843 
Q 2466 3031 2466 3422 
Q 2466 3731 2256 3934 
Q 2047 4138 1716 4138 
Q 1388 4138 1169 3931 
Q 950 3725 888 3313 
L 325 3413 
Q 428 3978 793 4289 
Q 1159 4600 1703 4600 
Q 2078 4600 2393 4439 
Q 2709 4278 2876 4000 
Q 3044 3722 3044 3409 
Q 3044 3113 2884 2869 
Q 2725 2625 2413 2481 
Q 2819 2388 3044 2092 
Q 3269 1797 3269 1353 
Q 3269 753 2831 336 
Q 2394 -81 1725 -81 
Q 1122 -81 723 278 
Q 325 638 269 1209 
z
" transform="scale(0.015625)"/>
       </defs>
       <use xlink:href="#ArialMT-31" transform="translate(0 0.99375)"/>
       <use xlink:href="#ArialMT-30" transform="translate(55.615234 0.99375)"/>
       <use xlink:href="#ArialMT-33" transform="translate(112.972813 70.6875)scale(0.7)"/>
      </g>
     </g>
    </g>
    <g id="xtick_3">
     <g id="line2d_3">
      <path d="M 360.869288 307.584 
L 360.869288 41.472 
" clip-path="url(#pc6abad81b9)" style="fill: none; stroke: #ffffff; stroke-linecap: round"/>
     </g>
     <g id="text_3">
      <!-- $\mathdefault{10^{4}}$ -->
      <g style="fill: #262626" transform="translate(352.234288 328.31775)scale(0.11 -0.11)">
       <defs>
        <path id="ArialMT-34" d="M 2069 0 
L 2069 1097 
L 81 1097 
L 81 1613 
L 2172 4581 
L 2631 4581 
L 2631 1613 
L 3250 1613 
L 3250 1097 
L 2631 1097 
L 2631 0 
L 2069 0 
z
M 2069 1613 
L 2069 3678 
L 634 1613 
L 2069 1613 
z
" transform="scale(0.015625)"/>
       </defs>
       <use xlink:href="#ArialMT-31" transform="translate(0 0.201563)"/>
       <use xlink:href="#ArialMT-30" transform="translate(55.615234 0.201563)"/>
       <use xlink:href="#ArialMT-34" transform="translate(112.972813 69.895313)scale(0.7)"/>
      </g>
     </g>
    </g>
    <g id="xtick_4"/>
    <g id="xtick_5"/>
    <g id="xtick_6"/>
    <g id="xtick_7"/>
    <g id="xtick_8"/>
    <g id="xtick_9"/>
    <g id="xtick_10"/>
    <g id="xtick_11"/>
    <g id="xtick_12"/>
    <g id="xtick_13"/>
    <g id="xtick_14"/>
    <g id="xtick_15"/>
    <g id="xtick_16"/>
    <g id="xtick_17"/>
    <g id="xtick_18"/>
    <g id="xtick_19"/>
    <g id="xtick_20"/>
    <g id="xtick_21"/>
    <g id="xtick_22"/>
    <g id="xtick_23"/>
    <g id="xtick_24"/>
    <g id="xtick_25"/>
    <g id="xtick_26"/>
    <g id="text_4">
     <!-- Bounding Box Area -->
     <g style="fill: #262626" transform="translate(184.789688 343.203375)scale(0.12 -0.12)">
      <defs>
       <path id="ArialMT-42" d="M 469 0 
L 469 4581 
L 2188 4581 
Q 2713 4581 3030 4442 
Q 3347 4303 3526 4014 
Q 3706 3725 3706 3409 
Q 3706 3116 3547 2856 
Q 3388 2597 3066 2438 
Q 3481 2316 3704 2022 
Q 3928 1728 3928 1328 
Q 3928 1006 3792 729 
Q 3656 453 3456 303 
Q 3256 153 2954 76 
Q 2653 0 2216 0 
L 469 0 
z
M 1075 2656 
L 2066 2656 
Q 2469 2656 2644 2709 
Q 2875 2778 2992 2937 
Q 3109 3097 3109 3338 
Q 3109 3566 3000 3739 
Q 2891 3913 2687 3977 
Q 2484 4041 1991 4041 
L 1075 4041 
L 1075 2656 
z
M 1075 541 
L 2216 541 
Q 2509 541 2628 563 
Q 2838 600 2978 687 
Q 3119 775 3209 942 
Q 3300 1109 3300 1328 
Q 3300 1584 3169 1773 
Q 3038 1963 2805 2039 
Q 2572 2116 2134 2116 
L 1075 2116 
L 1075 541 
z
" transform="scale(0.015625)"/>
       <path id="ArialMT-6f" d="M 213 1659 
Q 213 2581 725 3025 
Q 1153 3394 1769 3394 
Q 2453 3394 2887 2945 
Q 3322 2497 3322 1706 
Q 3322 1066 3130 698 
Q 2938 331 2570 128 
Q 2203 -75 1769 -75 
Q 1072 -75 642 372 
Q 213 819 213 1659 
z
M 791 1659 
Q 791 1022 1069 705 
Q 1347 388 1769 388 
Q 2188 388 2466 706 
Q 2744 1025 2744 1678 
Q 2744 2294 2464 2611 
Q 2184 2928 1769 2928 
Q 1347 2928 1069 2612 
Q 791 2297 791 1659 
z
" transform="scale(0.015625)"/>
       <path id="ArialMT-75" d="M 2597 0 
L 2597 488 
Q 2209 -75 1544 -75 
Q 1250 -75 995 37 
Q 741 150 617 320 
Q 494 491 444 738 
Q 409 903 409 1263 
L 409 3319 
L 972 3319 
L 972 1478 
Q 972 1038 1006 884 
Q 1059 663 1231 536 
Q 1403 409 1656 409 
Q 1909 409 2131 539 
Q 2353 669 2445 892 
Q 2538 1116 2538 1541 
L 2538 3319 
L 3100 3319 
L 3100 0 
L 2597 0 
z
" transform="scale(0.015625)"/>
       <path id="ArialMT-6e" d="M 422 0 
L 422 3319 
L 928 3319 
L 928 2847 
Q 1294 3394 1984 3394 
Q 2284 3394 2536 3286 
Q 2788 3178 2913 3003 
Q 3038 2828 3088 2588 
Q 3119 2431 3119 2041 
L 3119 0 
L 2556 0 
L 2556 2019 
Q 2556 2363 2490 2533 
Q 2425 2703 2258 2804 
Q 2091 2906 1866 2906 
Q 1506 2906 1245 2678 
Q 984 2450 984 1813 
L 984 0 
L 422 0 
z
" transform="scale(0.015625)"/>
       <path id="ArialMT-64" d="M 2575 0 
L 2575 419 
Q 2259 -75 1647 -75 
Q 1250 -75 917 144 
Q 584 363 401 755 
Q 219 1147 219 1656 
Q 219 2153 384 2558 
Q 550 2963 881 3178 
Q 1213 3394 1622 3394 
Q 1922 3394 2156 3267 
Q 2391 3141 2538 2938 
L 2538 4581 
L 3097 4581 
L 3097 0 
L 2575 0 
z
M 797 1656 
Q 797 1019 1065 703 
Q 1334 388 1700 388 
Q 2069 388 2326 689 
Q 2584 991 2584 1609 
Q 2584 2291 2321 2609 
Q 2059 2928 1675 2928 
Q 1300 2928 1048 2622 
Q 797 2316 797 1656 
z
" transform="scale(0.015625)"/>
       <path id="ArialMT-69" d="M 425 3934 
L 425 4581 
L 988 4581 
L 988 3934 
L 425 3934 
z
M 425 0 
L 425 3319 
L 988 3319 
L 988 0 
L 425 0 
z
" transform="scale(0.015625)"/>
       <path id="ArialMT-67" d="M 319 -275 
L 866 -356 
Q 900 -609 1056 -725 
Q 1266 -881 1628 -881 
Q 2019 -881 2231 -725 
Q 2444 -569 2519 -288 
Q 2563 -116 2559 434 
Q 2191 0 1641 0 
Q 956 0 581 494 
Q 206 988 206 1678 
Q 206 2153 378 2554 
Q 550 2956 876 3175 
Q 1203 3394 1644 3394 
Q 2231 3394 2613 2919 
L 2613 3319 
L 3131 3319 
L 3131 450 
Q 3131 -325 2973 -648 
Q 2816 -972 2473 -1159 
Q 2131 -1347 1631 -1347 
Q 1038 -1347 672 -1080 
Q 306 -813 319 -275 
z
M 784 1719 
Q 784 1066 1043 766 
Q 1303 466 1694 466 
Q 2081 466 2343 764 
Q 2606 1063 2606 1700 
Q 2606 2309 2336 2618 
Q 2066 2928 1684 2928 
Q 1309 2928 1046 2623 
Q 784 2319 784 1719 
z
" transform="scale(0.015625)"/>
       <path id="ArialMT-20" transform="scale(0.015625)"/>
       <path id="ArialMT-78" d="M 47 0 
L 1259 1725 
L 138 3319 
L 841 3319 
L 1350 2541 
Q 1494 2319 1581 2169 
Q 1719 2375 1834 2534 
L 2394 3319 
L 3066 3319 
L 1919 1756 
L 3153 0 
L 2463 0 
L 1781 1031 
L 1600 1309 
L 728 0 
L 47 0 
z
" transform="scale(0.015625)"/>
       <path id="ArialMT-41" d="M -9 0 
L 1750 4581 
L 2403 4581 
L 4278 0 
L 3588 0 
L 3053 1388 
L 1138 1388 
L 634 0 
L -9 0 
z
M 1313 1881 
L 2866 1881 
L 2388 3150 
Q 2169 3728 2063 4100 
Q 1975 3659 1816 3225 
L 1313 1881 
z
" transform="scale(0.015625)"/>
       <path id="ArialMT-72" d="M 416 0 
L 416 3319 
L 922 3319 
L 922 2816 
Q 1116 3169 1280 3281 
Q 1444 3394 1641 3394 
Q 1925 3394 2219 3213 
L 2025 2691 
Q 1819 2813 1613 2813 
Q 1428 2813 1281 2702 
Q 1134 2591 1072 2394 
Q 978 2094 978 1738 
L 978 0 
L 416 0 
z
" transform="scale(0.015625)"/>
       <path id="ArialMT-65" d="M 2694 1069 
L 3275 997 
Q 3138 488 2766 206 
Q 2394 -75 1816 -75 
Q 1088 -75 661 373 
Q 234 822 234 1631 
Q 234 2469 665 2931 
Q 1097 3394 1784 3394 
Q 2450 3394 2872 2941 
Q 3294 2488 3294 1666 
Q 3294 1616 3291 1516 
L 816 1516 
Q 847 969 1125 678 
Q 1403 388 1819 388 
Q 2128 388 2347 550 
Q 2566 713 2694 1069 
z
M 847 1978 
L 2700 1978 
Q 2663 2397 2488 2606 
Q 2219 2931 1791 2931 
Q 1403 2931 1139 2672 
Q 875 2413 847 1978 
z
" transform="scale(0.015625)"/>
       <path id="ArialMT-61" d="M 2588 409 
Q 2275 144 1986 34 
Q 1697 -75 1366 -75 
Q 819 -75 525 192 
Q 231 459 231 875 
Q 231 1119 342 1320 
Q 453 1522 633 1644 
Q 813 1766 1038 1828 
Q 1203 1872 1538 1913 
Q 2219 1994 2541 2106 
Q 2544 2222 2544 2253 
Q 2544 2597 2384 2738 
Q 2169 2928 1744 2928 
Q 1347 2928 1158 2789 
Q 969 2650 878 2297 
L 328 2372 
Q 403 2725 575 2942 
Q 747 3159 1072 3276 
Q 1397 3394 1825 3394 
Q 2250 3394 2515 3294 
Q 2781 3194 2906 3042 
Q 3031 2891 3081 2659 
Q 3109 2516 3109 2141 
L 3109 1391 
Q 3109 606 3145 398 
Q 3181 191 3288 0 
L 2700 0 
Q 2613 175 2588 409 
z
M 2541 1666 
Q 2234 1541 1622 1453 
Q 1275 1403 1131 1340 
Q 988 1278 909 1158 
Q 831 1038 831 891 
Q 831 666 1001 516 
Q 1172 366 1500 366 
Q 1825 366 2078 508 
Q 2331 650 2450 897 
Q 2541 1088 2541 1459 
L 2541 1666 
z
" transform="scale(0.015625)"/>
      </defs>
      <use xlink:href="#ArialMT-42"/>
      <use xlink:href="#ArialMT-6f" x="66.699219"/>
      <use xlink:href="#ArialMT-75" x="122.314453"/>
      <use xlink:href="#ArialMT-6e" x="177.929688"/>
      <use xlink:href="#ArialMT-64" x="233.544922"/>
      <use xlink:href="#ArialMT-69" x="289.160156"/>
      <use xlink:href="#ArialMT-6e" x="311.376953"/>
      <use xlink:href="#ArialMT-67" x="366.992188"/>
      <use xlink:href="#ArialMT-20" x="422.607422"/>
      <use xlink:href="#ArialMT-42" x="450.390625"/>
      <use xlink:href="#ArialMT-6f" x="517.089844"/>
      <use xlink:href="#ArialMT-78" x="572.705078"/>
      <use xlink:href="#ArialMT-20" x="622.705078"/>
      <use xlink:href="#ArialMT-41" x="644.988281"/>
      <use xlink:href="#ArialMT-72" x="711.6875"/>
      <use xlink:href="#ArialMT-65" x="744.988281"/>
      <use xlink:href="#ArialMT-61" x="800.603516"/>
     </g>
    </g>
   </g>
   <g id="matplotlib.axis_2">
    <g id="ytick_1">
     <g id="line2d_4">
      <path d="M 57.6 295.488 
L 414.72 295.488 
" clip-path="url(#pc6abad81b9)" style="fill: none; stroke: #ffffff; stroke-linecap: round"/>
     </g>
     <g id="line2d_5">
      <defs>
       <path id="ma96cfae3b7" d="M 0 0 
L -6 0 
" style="stroke: #262626; stroke-width: 1.25"/>
      </defs>
      <g>
       <use xlink:href="#ma96cfae3b7" x="57.6" y="295.488" style="fill: #262626; stroke: #262626; stroke-width: 1.25"/>
      </g>
     </g>
     <g id="text_5">
      <!-- 0.0 -->
      <g style="fill: #262626" transform="translate(32.81 299.424797)scale(0.11 -0.11)">
       <defs>
        <path id="ArialMT-2e" d="M 581 0 
L 581 641 
L 1222 641 
L 1222 0 
L 581 0 
z
" transform="scale(0.015625)"/>
       </defs>
       <use xlink:href="#ArialMT-30"/>
       <use xlink:href="#ArialMT-2e" x="55.615234"/>
       <use xlink:href="#ArialMT-30" x="83.398438"/>
      </g>
     </g>
    </g>
    <g id="ytick_2">
     <g id="line2d_6">
      <path d="M 57.6 246.768 
L 414.72 246.768 
" clip-path="url(#pc6abad81b9)" style="fill: none; stroke: #ffffff; stroke-linecap: round"/>
     </g>
     <g id="line2d_7">
      <g>
       <use xlink:href="#ma96cfae3b7" x="57.6" y="246.768" style="fill: #262626; stroke: #262626; stroke-width: 1.25"/>
      </g>
     </g>
     <g id="text_6">
      <!-- 0.2 -->
      <g style="fill: #262626" transform="translate(32.81 250.704797)scale(0.11 -0.11)">
       <use xlink:href="#ArialMT-30"/>
       <use xlink:href="#ArialMT-2e" x="55.615234"/>
       <use xlink:href="#ArialMT-32" x="83.398438"/>
      </g>
     </g>
    </g>
    <g id="ytick_3">
     <g id="line2d_8">
      <path d="M 57.6 198.048 
L 414.72 198.048 
" clip-path="url(#pc6abad81b9)" style="fill: none; stroke: #ffffff; stroke-linecap: round"/>
     </g>
     <g id="line2d_9">
      <g>
       <use xlink:href="#ma96cfae3b7" x="57.6" y="198.048" style="fill: #262626; stroke: #262626; stroke-width: 1.25"/>
      </g>
     </g>
     <g id="text_7">
      <!-- 0.4 -->
      <g style="fill: #262626" transform="translate(32.81 201.984797)scale(0.11 -0.11)">
       <use xlink:href="#ArialMT-30"/>
       <use xlink:href="#ArialMT-2e" x="55.615234"/>
       <use xlink:href="#ArialMT-34" x="83.398438"/>
      </g>
     </g>
    </g>
    <g id="ytick_4">
     <g id="line2d_10">
      <path d="M 57.6 149.328 
L 414.72 149.328 
" clip-path="url(#pc6abad81b9)" style="fill: none; stroke: #ffffff; stroke-linecap: round"/>
     </g>
     <g id="line2d_11">
      <g>
       <use xlink:href="#ma96cfae3b7" x="57.6" y="149.328" style="fill: #262626; stroke: #262626; stroke-width: 1.25"/>
      </g>
     </g>
     <g id="text_8">
      <!-- 0.6 -->
      <g style="fill: #262626" transform="translate(32.81 153.264797)scale(0.11 -0.11)">
       <defs>
        <path id="ArialMT-36" d="M 3184 3459 
L 2625 3416 
Q 2550 3747 2413 3897 
Q 2184 4138 1850 4138 
Q 1581 4138 1378 3988 
Q 1113 3794 959 3422 
Q 806 3050 800 2363 
Q 1003 2672 1297 2822 
Q 1591 2972 1913 2972 
Q 2475 2972 2870 2558 
Q 3266 2144 3266 1488 
Q 3266 1056 3080 686 
Q 2894 316 2569 119 
Q 2244 -78 1831 -78 
Q 1128 -78 684 439 
Q 241 956 241 2144 
Q 241 3472 731 4075 
Q 1159 4600 1884 4600 
Q 2425 4600 2770 4297 
Q 3116 3994 3184 3459 
z
M 888 1484 
Q 888 1194 1011 928 
Q 1134 663 1356 523 
Q 1578 384 1822 384 
Q 2178 384 2434 671 
Q 2691 959 2691 1453 
Q 2691 1928 2437 2201 
Q 2184 2475 1800 2475 
Q 1419 2475 1153 2201 
Q 888 1928 888 1484 
z
" transform="scale(0.015625)"/>
       </defs>
       <use xlink:href="#ArialMT-30"/>
       <use xlink:href="#ArialMT-2e" x="55.615234"/>
       <use xlink:href="#ArialMT-36" x="83.398438"/>
      </g>
     </g>
    </g>
    <g id="ytick_5">
     <g id="line2d_12">
      <path d="M 57.6 100.608 
L 414.72 100.608 
" clip-path="url(#pc6abad81b9)" style="fill: none; stroke: #ffffff; stroke-linecap: round"/>
     </g>
     <g id="line2d_13">
      <g>
       <use xlink:href="#ma96cfae3b7" x="57.6" y="100.608" style="fill: #262626; stroke: #262626; stroke-width: 1.25"/>
      </g>
     </g>
     <g id="text_9">
      <!-- 0.8 -->
      <g style="fill: #262626" transform="translate(32.81 104.544797)scale(0.11 -0.11)">
       <defs>
        <path id="ArialMT-38" d="M 1131 2484 
Q 781 2613 612 2850 
Q 444 3088 444 3419 
Q 444 3919 803 4259 
Q 1163 4600 1759 4600 
Q 2359 4600 2725 4251 
Q 3091 3903 3091 3403 
Q 3091 3084 2923 2848 
Q 2756 2613 2416 2484 
Q 2838 2347 3058 2040 
Q 3278 1734 3278 1309 
Q 3278 722 2862 322 
Q 2447 -78 1769 -78 
Q 1091 -78 675 323 
Q 259 725 259 1325 
Q 259 1772 486 2073 
Q 713 2375 1131 2484 
z
M 1019 3438 
Q 1019 3113 1228 2906 
Q 1438 2700 1772 2700 
Q 2097 2700 2305 2904 
Q 2513 3109 2513 3406 
Q 2513 3716 2298 3927 
Q 2084 4138 1766 4138 
Q 1444 4138 1231 3931 
Q 1019 3725 1019 3438 
z
M 838 1322 
Q 838 1081 952 856 
Q 1066 631 1291 507 
Q 1516 384 1775 384 
Q 2178 384 2440 643 
Q 2703 903 2703 1303 
Q 2703 1709 2433 1975 
Q 2163 2241 1756 2241 
Q 1359 2241 1098 1978 
Q 838 1716 838 1322 
z
" transform="scale(0.015625)"/>
       </defs>
       <use xlink:href="#ArialMT-30"/>
       <use xlink:href="#ArialMT-2e" x="55.615234"/>
       <use xlink:href="#ArialMT-38" x="83.398438"/>
      </g>
     </g>
    </g>
    <g id="ytick_6">
     <g id="line2d_14">
      <path d="M 57.6 51.888 
L 414.72 51.888 
" clip-path="url(#pc6abad81b9)" style="fill: none; stroke: #ffffff; stroke-linecap: round"/>
     </g>
     <g id="line2d_15">
      <g>
       <use xlink:href="#ma96cfae3b7" x="57.6" y="51.888" style="fill: #262626; stroke: #262626; stroke-width: 1.25"/>
      </g>
     </g>
     <g id="text_10">
      <!-- 1.0 -->
      <g style="fill: #262626" transform="translate(32.81 55.824797)scale(0.11 -0.11)">
       <use xlink:href="#ArialMT-31"/>
       <use xlink:href="#ArialMT-2e" x="55.615234"/>
       <use xlink:href="#ArialMT-30" x="83.398438"/>
      </g>
     </g>
    </g>
    <g id="text_11">
     <!-- eCDF -->
     <g style="fill: #262626" transform="translate(26.425 190.1955)rotate(-90)scale(0.12 -0.12)">
      <defs>
       <path id="ArialMT-43" d="M 3763 1606 
L 4369 1453 
Q 4178 706 3683 314 
Q 3188 -78 2472 -78 
Q 1731 -78 1267 223 
Q 803 525 561 1097 
Q 319 1669 319 2325 
Q 319 3041 592 3573 
Q 866 4106 1370 4382 
Q 1875 4659 2481 4659 
Q 3169 4659 3637 4309 
Q 4106 3959 4291 3325 
L 3694 3184 
Q 3534 3684 3231 3912 
Q 2928 4141 2469 4141 
Q 1941 4141 1586 3887 
Q 1231 3634 1087 3207 
Q 944 2781 944 2328 
Q 944 1744 1114 1308 
Q 1284 872 1643 656 
Q 2003 441 2422 441 
Q 2931 441 3284 734 
Q 3638 1028 3763 1606 
z
" transform="scale(0.015625)"/>
       <path id="ArialMT-44" d="M 494 0 
L 494 4581 
L 2072 4581 
Q 2606 4581 2888 4516 
Q 3281 4425 3559 4188 
Q 3922 3881 4101 3404 
Q 4281 2928 4281 2316 
Q 4281 1794 4159 1391 
Q 4038 988 3847 723 
Q 3656 459 3429 307 
Q 3203 156 2883 78 
Q 2563 0 2147 0 
L 494 0 
z
M 1100 541 
L 2078 541 
Q 2531 541 2789 625 
Q 3047 709 3200 863 
Q 3416 1078 3536 1442 
Q 3656 1806 3656 2325 
Q 3656 3044 3420 3430 
Q 3184 3816 2847 3947 
Q 2603 4041 2063 4041 
L 1100 4041 
L 1100 541 
z
" transform="scale(0.015625)"/>
       <path id="ArialMT-46" d="M 525 0 
L 525 4581 
L 3616 4581 
L 3616 4041 
L 1131 4041 
L 1131 2622 
L 3281 2622 
L 3281 2081 
L 1131 2081 
L 1131 0 
L 525 0 
z
" transform="scale(0.015625)"/>
      </defs>
      <use xlink:href="#ArialMT-65"/>
      <use xlink:href="#ArialMT-43" x="55.615234"/>
      <use xlink:href="#ArialMT-44" x="127.832031"/>
      <use xlink:href="#ArialMT-46" x="200.048828"/>
     </g>
    </g>
   </g>
   <g id="line2d_16">
    <path d="M 97.375444 295.488 
L 97.375444 293.808 
L 98.942177 292.128 
L 99.454197 290.448 
L 106.478065 288.768 
L 109.808414 287.088 
L 113.652885 283.728 
L 113.652885 282.048 
L 115.23248 280.368 
L 117.366963 278.688 
L 117.583829 277.008 
L 118.122107 275.328 
L 118.122107 273.648 
L 119.107351 271.968 
L 119.182379 268.608 
L 121.156573 266.928 
L 121.742967 265.248 
L 121.781401 263.568 
L 122.240427 261.888 
L 122.977886 258.528 
L 124.706623 255.168 
L 125.130054 253.488 
L 125.130054 251.808 
L 125.596561 250.128 
L 127.422194 248.448 
L 128.311734 246.768 
L 128.750914 245.088 
L 128.750914 241.728 
L 129.258688 240.048 
L 129.372006 238.368 
L 130.612668 236.688 
L 131.311502 235.008 
L 131.78538 233.328 
L 133.487219 231.648 
L 134.932361 229.968 
L 134.932361 228.288 
L 135.087633 226.608 
L 135.126379 224.928 
L 137.769898 221.568 
L 138.319449 219.888 
L 139.757393 218.208 
L 139.828266 216.528 
L 140.321717 214.848 
L 140.461855 211.488 
L 141.501129 209.808 
L 143.188787 208.128 
L 143.409763 206.448 
L 144.716427 204.768 
L 145.622685 203.088 
L 147.030622 201.408 
L 147.030622 198.048 
L 150.03039 196.368 
L 150.17597 194.688 
L 151.126803 191.328 
L 151.751254 189.648 
L 152.032658 187.968 
L 154.499612 186.288 
L 155.559883 182.928 
L 156.298156 181.248 
L 156.855792 177.888 
L 159.29433 176.208 
L 160.894834 174.528 
L 164.214575 172.848 
L 164.542025 171.168 
L 165.780373 167.808 
L 165.888249 164.448 
L 167.896855 162.768 
L 169.329192 159.408 
L 170.814115 157.728 
L 172.463355 156.048 
L 174.331227 154.368 
L 174.494087 152.688 
L 174.769795 151.008 
L 176.311901 147.648 
L 176.40018 145.968 
L 176.944218 144.288 
L 177.964318 142.608 
L 178.433098 139.248 
L 181.522356 137.568 
L 182.000189 135.888 
L 182.211171 134.208 
L 182.708879 132.528 
L 182.787035 130.848 
L 184.879434 129.168 
L 188.186998 127.488 
L 188.715437 125.808 
L 191.110888 124.128 
L 194.497976 117.408 
L 197.177436 115.728 
L 201.066744 114.048 
L 203.01474 112.368 
L 207.358331 109.008 
L 210.46349 105.648 
L 211.337549 103.968 
L 213.565581 102.288 
L 216.357366 100.608 
L 216.634694 98.928 
L 225.514309 97.248 
L 229.591598 95.568 
L 230.246951 93.888 
L 237.83868 92.208 
L 241.253429 90.528 
L 251.890495 88.848 
L 253.930328 85.488 
L 255.203717 83.808 
L 265.270673 82.128 
L 267.877507 80.448 
L 271.521 78.768 
L 271.790842 77.088 
L 274.228122 75.408 
L 279.103398 73.728 
L 280.284211 72.048 
L 281.619633 70.368 
L 308.111665 68.688 
L 310.846757 67.008 
L 324.821033 65.328 
L 330.507695 63.648 
L 337.821913 61.968 
L 341.691056 60.288 
L 355.025633 58.608 
L 355.122291 56.928 
L 368.916132 55.248 
L 379.594124 53.568 
L 379.594124 53.568 
" clip-path="url(#pc6abad81b9)" style="fill: none; stroke: #4c72b0; stroke-width: 1.5; stroke-linecap: round"/>
   </g>
   <g id="line2d_17">
    <path d="M 73.832727 295.488 
L 101.09408 293.474777 
L 104.08435 291.461554 
L 113.846903 289.448331 
L 116.379818 287.435107 
L 119.182379 285.421884 
L 121.464549 283.408661 
L 121.742967 281.395438 
L 122.019915 279.382215 
L 125.596561 277.368992 
L 126.765652 275.355769 
L 129.330828 273.342545 
L 130.809281 271.329322 
L 131.159821 269.316099 
L 131.357762 267.302876 
L 131.688798 265.289653 
L 132.982732 263.27643 
L 133.809717 261.263207 
L 134.036175 259.249983 
L 135.126379 257.23676 
L 137.544347 255.223537 
L 138.48118 253.210314 
L 140.110806 251.197091 
L 141.363743 249.183868 
L 141.569688 247.170645 
L 141.615344 245.157421 
L 141.895433 243.144198 
L 142.140378 241.130975 
L 144.110697 239.117752 
L 148.641828 237.104529 
L 150.35738 235.091306 
L 150.921768 233.078083 
L 151.694792 231.06486 
L 152.973048 229.051636 
L 154.842755 227.038413 
L 154.880744 225.02519 
L 155.154618 223.011967 
L 155.179474 220.998744 
L 155.664742 218.985521 
L 156.56699 216.972298 
L 157.301905 214.959074 
L 157.419628 212.945851 
L 158.887299 210.932628 
L 159.355391 208.919405 
L 159.753316 206.906182 
L 160.189518 204.892959 
L 161.317981 202.879736 
L 161.390282 200.866512 
L 164.826267 198.853289 
L 165.159648 196.840066 
L 167.130686 194.826843 
L 167.192043 192.81362 
L 167.867213 190.800397 
L 168.025452 188.787174 
L 168.669036 186.77395 
L 168.957818 184.760727 
L 170.952294 182.747504 
L 172.214106 180.734281 
L 173.124699 178.721058 
L 173.405601 176.707835 
L 180.260963 174.694612 
L 181.522356 172.681388 
L 181.717554 170.668165 
L 184.391163 168.654942 
L 185.74774 166.641719 
L 185.821502 164.628496 
L 185.834902 162.615273 
L 189.130214 160.60205 
L 190.220351 158.588826 
L 191.39788 156.575603 
L 192.883029 154.56238 
L 195.044924 152.549157 
L 197.023551 150.535934 
L 197.83623 148.522711 
L 197.843209 146.509488 
L 199.639637 144.496264 
L 199.655975 142.483041 
L 200.164742 140.469818 
L 200.693306 138.456595 
L 201.770786 136.443372 
L 201.887214 134.430149 
L 203.33249 132.416926 
L 204.59397 130.403702 
L 204.601779 128.390479 
L 209.979879 126.377256 
L 210.016047 124.364033 
L 212.227948 122.35081 
L 215.662784 120.337587 
L 217.397448 118.324364 
L 219.596632 116.31114 
L 220.079901 114.297917 
L 222.885529 112.284694 
L 227.488393 110.271471 
L 228.489541 108.258248 
L 229.251161 106.245025 
L 229.587523 104.231802 
L 234.670988 102.218579 
L 238.562372 100.205355 
L 241.202136 98.192132 
L 243.159744 96.178909 
L 243.287033 94.165686 
L 245.143609 92.152463 
L 246.64229 90.13924 
L 246.711342 88.126017 
L 250.224721 86.112793 
L 251.686368 84.09957 
L 253.795142 82.086347 
L 254.025847 80.073124 
L 254.450419 78.059901 
L 259.290309 76.046678 
L 264.116933 74.033455 
L 266.54008 72.020231 
L 275.396592 70.007008 
L 280.318725 67.993785 
L 291.968338 65.980562 
L 292.623268 63.967339 
L 304.528693 61.954116 
L 307.865495 59.940893 
L 323.103503 57.927669 
L 351.37732 55.914446 
L 398.487273 53.901223 
" clip-path="url(#pc6abad81b9)" style="fill: none; stroke-dasharray: 1.5,2.475; stroke-dashoffset: 0; stroke: #4c72b0; stroke-width: 1.5"/>
   </g>
   <g id="patch_3">
    <path d="M 57.6 307.584 
L 57.6 41.472 
" style="fill: none; stroke: #ffffff; stroke-width: 1.25; stroke-linejoin: miter; stroke-linecap: square"/>
   </g>
   <g id="patch_4">
    <path d="M 414.72 307.584 
L 414.72 41.472 
" style="fill: none; stroke: #ffffff; stroke-width: 1.25; stroke-linejoin: miter; stroke-linecap: square"/>
   </g>
   <g id="patch_5">
    <path d="M 57.6 307.584 
L 414.72 307.584 
" style="fill: none; stroke: #ffffff; stroke-width: 1.25; stroke-linejoin: miter; stroke-linecap: square"/>
   </g>
   <g id="patch_6">
    <path d="M 57.6 41.472 
L 414.72 41.472 
" style="fill: none; stroke: #ffffff; stroke-width: 1.25; stroke-linejoin: miter; stroke-linecap: square"/>
   </g>
  </g>
  <g id="axes_2">
   <g id="matplotlib.axis_3">
    <g id="ytick_7">
     <g id="line2d_18">
      <path d="M 57.6 295.489191 
L 414.72 295.489191 
" clip-path="url(#pc6abad81b9)" style="fill: none; stroke-dasharray: 1,1.65; stroke-dashoffset: 0; stroke: #ffffff"/>
     </g>
     <g id="line2d_19">
      <defs>
       <path id="m81f3c3f81b" d="M 0 0 
L 6 0 
" style="stroke: #262626; stroke-width: 1.25"/>
      </defs>
      <g>
       <use xlink:href="#m81f3c3f81b" x="414.72" y="295.489191" style="fill: #262626; stroke: #262626; stroke-width: 1.25"/>
      </g>
     </g>
     <g id="text_12">
      <!-- 0.00 -->
      <g style="fill: #262626" transform="translate(424.22 299.425988)scale(0.11 -0.11)">
       <use xlink:href="#ArialMT-30"/>
       <use xlink:href="#ArialMT-2e" x="55.615234"/>
       <use xlink:href="#ArialMT-30" x="83.398438"/>
       <use xlink:href="#ArialMT-30" x="139.013672"/>
      </g>
     </g>
    </g>
    <g id="ytick_8">
     <g id="line2d_20">
      <path d="M 57.6 260.508459 
L 414.72 260.508459 
" clip-path="url(#pc6abad81b9)" style="fill: none; stroke-dasharray: 1,1.65; stroke-dashoffset: 0; stroke: #ffffff"/>
     </g>
     <g id="line2d_21">
      <g>
       <use xlink:href="#m81f3c3f81b" x="414.72" y="260.508459" style="fill: #262626; stroke: #262626; stroke-width: 1.25"/>
      </g>
     </g>
     <g id="text_13">
      <!-- 0.02 -->
      <g style="fill: #262626" transform="translate(424.22 264.445256)scale(0.11 -0.11)">
       <use xlink:href="#ArialMT-30"/>
       <use xlink:href="#ArialMT-2e" x="55.615234"/>
       <use xlink:href="#ArialMT-30" x="83.398438"/>
       <use xlink:href="#ArialMT-32" x="139.013672"/>
      </g>
     </g>
    </g>
    <g id="ytick_9">
     <g id="line2d_22">
      <path d="M 57.6 225.527727 
L 414.72 225.527727 
" clip-path="url(#pc6abad81b9)" style="fill: none; stroke-dasharray: 1,1.65; stroke-dashoffset: 0; stroke: #ffffff"/>
     </g>
     <g id="line2d_23">
      <g>
       <use xlink:href="#m81f3c3f81b" x="414.72" y="225.527727" style="fill: #262626; stroke: #262626; stroke-width: 1.25"/>
      </g>
     </g>
     <g id="text_14">
      <!-- 0.04 -->
      <g style="fill: #262626" transform="translate(424.22 229.464524)scale(0.11 -0.11)">
       <use xlink:href="#ArialMT-30"/>
       <use xlink:href="#ArialMT-2e" x="55.615234"/>
       <use xlink:href="#ArialMT-30" x="83.398438"/>
       <use xlink:href="#ArialMT-34" x="139.013672"/>
      </g>
     </g>
    </g>
    <g id="ytick_10">
     <g id="line2d_24">
      <path d="M 57.6 190.546994 
L 414.72 190.546994 
" clip-path="url(#pc6abad81b9)" style="fill: none; stroke-dasharray: 1,1.65; stroke-dashoffset: 0; stroke: #ffffff"/>
     </g>
     <g id="line2d_25">
      <g>
       <use xlink:href="#m81f3c3f81b" x="414.72" y="190.546994" style="fill: #262626; stroke: #262626; stroke-width: 1.25"/>
      </g>
     </g>
     <g id="text_15">
      <!-- 0.06 -->
      <g style="fill: #262626" transform="translate(424.22 194.483791)scale(0.11 -0.11)">
       <use xlink:href="#ArialMT-30"/>
       <use xlink:href="#ArialMT-2e" x="55.615234"/>
       <use xlink:href="#ArialMT-30" x="83.398438"/>
       <use xlink:href="#ArialMT-36" x="139.013672"/>
      </g>
     </g>
    </g>
    <g id="ytick_11">
     <g id="line2d_26">
      <path d="M 57.6 155.566262 
L 414.72 155.566262 
" clip-path="url(#pc6abad81b9)" style="fill: none; stroke-dasharray: 1,1.65; stroke-dashoffset: 0; stroke: #ffffff"/>
     </g>
     <g id="line2d_27">
      <g>
       <use xlink:href="#m81f3c3f81b" x="414.72" y="155.566262" style="fill: #262626; stroke: #262626; stroke-width: 1.25"/>
      </g>
     </g>
     <g id="text_16">
      <!-- 0.08 -->
      <g style="fill: #262626" transform="translate(424.22 159.503059)scale(0.11 -0.11)">
       <use xlink:href="#ArialMT-30"/>
       <use xlink:href="#ArialMT-2e" x="55.615234"/>
       <use xlink:href="#ArialMT-30" x="83.398438"/>
       <use xlink:href="#ArialMT-38" x="139.013672"/>
      </g>
     </g>
    </g>
    <g id="ytick_12">
     <g id="line2d_28">
      <path d="M 57.6 120.58553 
L 414.72 120.58553 
" clip-path="url(#pc6abad81b9)" style="fill: none; stroke-dasharray: 1,1.65; stroke-dashoffset: 0; stroke: #ffffff"/>
     </g>
     <g id="line2d_29">
      <g>
       <use xlink:href="#m81f3c3f81b" x="414.72" y="120.58553" style="fill: #262626; stroke: #262626; stroke-width: 1.25"/>
      </g>
     </g>
     <g id="text_17">
      <!-- 0.10 -->
      <g style="fill: #262626" transform="translate(424.22 124.522327)scale(0.11 -0.11)">
       <use xlink:href="#ArialMT-30"/>
       <use xlink:href="#ArialMT-2e" x="55.615234"/>
       <use xlink:href="#ArialMT-31" x="83.398438"/>
       <use xlink:href="#ArialMT-30" x="139.013672"/>
      </g>
     </g>
    </g>
    <g id="ytick_13">
     <g id="line2d_30">
      <path d="M 57.6 85.604797 
L 414.72 85.604797 
" clip-path="url(#pc6abad81b9)" style="fill: none; stroke-dasharray: 1,1.65; stroke-dashoffset: 0; stroke: #ffffff"/>
     </g>
     <g id="line2d_31">
      <g>
       <use xlink:href="#m81f3c3f81b" x="414.72" y="85.604797" style="fill: #262626; stroke: #262626; stroke-width: 1.25"/>
      </g>
     </g>
     <g id="text_18">
      <!-- 0.12 -->
      <g style="fill: #262626" transform="translate(424.22 89.541594)scale(0.11 -0.11)">
       <use xlink:href="#ArialMT-30"/>
       <use xlink:href="#ArialMT-2e" x="55.615234"/>
       <use xlink:href="#ArialMT-31" x="83.398438"/>
       <use xlink:href="#ArialMT-32" x="139.013672"/>
      </g>
     </g>
    </g>
    <g id="ytick_14">
     <g id="line2d_32">
      <path d="M 57.6 50.624065 
L 414.72 50.624065 
" clip-path="url(#pc6abad81b9)" style="fill: none; stroke-dasharray: 1,1.65; stroke-dashoffset: 0; stroke: #ffffff"/>
     </g>
     <g id="line2d_33">
      <g>
       <use xlink:href="#m81f3c3f81b" x="414.72" y="50.624065" style="fill: #262626; stroke: #262626; stroke-width: 1.25"/>
      </g>
     </g>
     <g id="text_19">
      <!-- 0.14 -->
      <g style="fill: #262626" transform="translate(424.22 54.560862)scale(0.11 -0.11)">
       <use xlink:href="#ArialMT-30"/>
       <use xlink:href="#ArialMT-2e" x="55.615234"/>
       <use xlink:href="#ArialMT-31" x="83.398438"/>
       <use xlink:href="#ArialMT-34" x="139.013672"/>
      </g>
     </g>
    </g>
    <g id="text_20">
     <!-- ePDF -->
     <g style="fill: #262626" transform="translate(458.216406 189.864562)rotate(-90)scale(0.12 -0.12)">
      <defs>
       <path id="ArialMT-50" d="M 494 0 
L 494 4581 
L 2222 4581 
Q 2678 4581 2919 4538 
Q 3256 4481 3484 4323 
Q 3713 4166 3852 3881 
Q 3991 3597 3991 3256 
Q 3991 2672 3619 2267 
Q 3247 1863 2275 1863 
L 1100 1863 
L 1100 0 
L 494 0 
z
M 1100 2403 
L 2284 2403 
Q 2872 2403 3119 2622 
Q 3366 2841 3366 3238 
Q 3366 3525 3220 3729 
Q 3075 3934 2838 4000 
Q 2684 4041 2272 4041 
L 1100 4041 
L 1100 2403 
z
" transform="scale(0.015625)"/>
      </defs>
      <use xlink:href="#ArialMT-65"/>
      <use xlink:href="#ArialMT-50" x="55.615234"/>
      <use xlink:href="#ArialMT-44" x="122.314453"/>
      <use xlink:href="#ArialMT-46" x="194.53125"/>
     </g>
    </g>
   </g>
   <g id="line2d_34">
    <path d="M 98.942177 280.41129 
L 99.454197 278.466617 
L 106.478065 293.52793 
L 109.808414 292.108664 
L 111.672211 291.676268 
M 115.23248 291.625071 
L 117.366963 267.876704 
L 117.583829 270.502954 
M 121.156573 286.828295 
L 121.742967 147.739077 
L 121.781401 149.73614 
L 122.240427 279.503373 
L 122.569466 279.004019 
L 122.977886 283.460222 
L 123.825359 288.777552 
L 124.706623 284.339036 
M 125.596561 285.236218 
L 127.422194 290.463224 
L 128.311734 285.437257 
M 129.258688 255.981172 
L 129.372006 252.898761 
L 130.612668 289.376462 
L 131.311502 286.284005 
L 131.78538 286.579522 
L 133.487219 292.391368 
M 135.087633 192.959459 
L 135.126379 178.306211 
L 136.389214 292.020233 
L 137.769898 288.826911 
L 138.319449 288.818362 
L 139.757393 237.905966 
L 139.828266 241.639542 
L 140.321717 257.413032 
L 140.461855 202.689731 
L 141.501129 292.071534 
L 143.188787 279.240535 
L 143.409763 279.549695 
L 144.716427 291.746757 
L 145.622685 291.84111 
M 150.03039 272.455901 
L 150.17597 275.385322 
L 150.610304 288.056852 
L 151.126803 289.336189 
L 151.751254 285.482947 
L 152.032658 284.499076 
L 154.499612 290.310922 
L 155.032425 289.458031 
L 155.559883 290.192046 
L 156.298156 284.034633 
L 156.525603 283.549471 
L 156.855792 287.056276 
L 159.29433 293.909162 
L 160.894834 293.983919 
L 164.214575 287.99769 
L 164.542025 288.61776 
L 165.128419 291.202337 
L 165.780373 262.518846 
L 165.888249 224.341197 
L 167.896855 292.400119 
L 168.566733 292.007466 
L 169.329192 292.807742 
L 170.814115 293.967677 
L 172.463355 294.171584 
L 174.331227 282.928376 
L 174.494087 283.988596 
L 174.769795 288.855085 
L 175.540535 292.683663 
L 176.311901 273.572241 
L 176.40018 274.174767 
L 176.944218 292.234175 
L 177.964318 288.663269 
L 178.220535 286.570384 
L 178.433098 286.402243 
L 181.522356 291.934273 
L 182.000189 287.988902 
L 182.211171 287.994328 
L 182.787035 272.184855 
L 184.879434 294.738814 
L 188.186998 292.668144 
L 188.715437 292.732647 
L 191.110888 293.866221 
L 191.928015 293.519531 
L 193.600024 293.764903 
L 197.177436 295.016927 
L 208.954827 294.751354 
L 210.46349 294.418857 
L 211.337549 294.443061 
L 213.565581 295.058385 
L 216.634694 292.011667 
L 225.514309 295.324678 
L 230.246951 294.397676 
L 237.83868 295.333328 
L 241.253429 295.331611 
L 252.850088 294.99903 
L 255.203717 295.146389 
L 267.877507 295.361991 
L 271.790842 294.316689 
L 274.228122 295.374173 
L 281.619633 295.279555 
L 330.507695 295.470915 
L 341.691056 295.468371 
L 355.122291 294.762212 
L 368.916132 295.484659 
L 379.594124 295.484605 
L 379.594124 295.484605 
" clip-path="url(#pc6abad81b9)" style="fill: none; stroke: #dd8452; stroke-width: 1.5; stroke-linecap: round"/>
   </g>
   <g id="line2d_35">
    <path d="M 73.832727 294.985596 
L 101.09408 292.385585 
L 104.08435 292.550137 
L 113.846903 292.77041 
L 116.379818 292.463911 
L 119.182379 292.454621 
L 121.464549 272.000063 
L 121.742967 269.470465 
L 122.019915 271.142481 
L 125.596561 290.762698 
L 126.765652 290.78223 
L 129.330828 291.945927 
L 130.809281 280.755004 
L 131.159821 269.808543 
L 131.357762 269.642203 
L 131.688798 280.101608 
L 132.982732 289.453109 
L 133.809717 274.158039 
L 134.036175 273.615686 
L 135.126379 291.18883 
L 137.544347 290.802588 
L 138.48118 290.725357 
L 140.110806 291.845726 
L 141.363743 274.265803 
L 141.569688 202.40873 
L 141.615344 199.769537 
L 141.895433 276.580525 
L 142.140378 277.355337 
L 144.110697 293.468076 
L 148.641828 293.433158 
L 150.35738 289.340781 
L 150.921768 288.971082 
L 151.694792 290.974489 
L 152.973048 292.75732 
L 154.842755 196.313846 
L 154.880744 204.898483 
L 155.154618 153.400913 
L 155.179474 148.818937 
L 155.664742 288.927278 
L 156.56699 290.854458 
L 157.301905 267.985348 
L 157.419628 266.455188 
L 158.887299 289.171056 
L 159.355391 287.238103 
L 159.753316 287.05423 
L 160.189518 288.859807 
L 161.317981 251.184841 
L 161.390282 249.428681 
L 164.826267 286.764589 
L 165.159648 287.109624 
L 167.130686 247.405762 
L 167.192043 249.661597 
L 167.867213 279.321006 
L 168.025452 279.365167 
L 168.669036 287.025991 
L 168.957818 286.372521 
L 170.952294 293.578006 
L 172.214106 292.818354 
L 173.124699 287.429262 
L 173.405601 286.194107 
L 180.260963 293.879954 
L 181.522356 285.014827 
L 181.717554 284.391153 
L 184.391163 294.155813 
L 185.74774 268.006463 
L 185.821502 156.500268 
L 185.834902 137.107355 
L 189.130214 293.978013 
L 190.220351 293.754037 
L 191.39788 294.00648 
L 192.883029 294.387897 
L 195.044924 294.623445 
L 197.023551 293.74794 
L 197.83623 54.713449 
L 197.843209 53.568 
L 199.639637 196.17922 
L 199.655975 198.272908 
L 200.164742 292.360209 
L 200.693306 292.951025 
L 201.770786 283.181916 
L 201.887214 282.911269 
L 203.33249 294.352634 
L 204.59397 105.865822 
L 204.601779 104.947553 
L 209.979879 258.578965 
L 210.016047 258.895692 
L 212.227948 294.982216 
L 215.662784 294.916297 
L 217.397448 294.875915 
L 219.596632 293.511643 
L 220.079901 293.457859 
L 222.885529 295.164504 
L 227.488393 294.673155 
L 228.489541 294.378887 
L 229.251161 293.200377 
L 229.587523 292.881616 
L 234.670988 295.296934 
L 238.562372 295.234657 
L 241.202136 295.153853 
L 243.159744 290.207352 
L 243.287033 290.211389 
L 245.143609 295.070831 
L 246.64229 286.222915 
L 246.711342 285.98768 
L 250.224721 295.139931 
L 251.686368 295.123571 
L 253.795142 293.190843 
L 254.025847 293.372425 
L 254.450419 294.222473 
L 259.290309 295.380164 
L 264.116933 295.327142 
L 266.54008 295.324641 
L 275.396592 295.424919 
L 280.318725 295.426958 
L 291.968338 295.085138 
L 292.623268 295.080254 
L 304.528693 295.435421 
L 307.865495 295.432906 
L 323.103503 295.4794 
L 351.37732 295.485694 
L 398.487273 295.488 
" clip-path="url(#pc6abad81b9)" style="fill: none; stroke-dasharray: 1.5,2.475; stroke-dashoffset: 0; stroke: #dd8452; stroke-width: 1.5"/>
   </g>
   <g id="patch_7">
    <path d="M 57.6 307.584 
L 57.6 41.472 
" style="fill: none; stroke: #ffffff; stroke-width: 1.25; stroke-linejoin: miter; stroke-linecap: square"/>
   </g>
   <g id="patch_8">
    <path d="M 414.72 307.584 
L 414.72 41.472 
" style="fill: none; stroke: #ffffff; stroke-width: 1.25; stroke-linejoin: miter; stroke-linecap: square"/>
   </g>
   <g id="patch_9">
    <path d="M 57.6 307.584 
L 414.72 307.584 
" style="fill: none; stroke: #ffffff; stroke-width: 1.25; stroke-linejoin: miter; stroke-linecap: square"/>
   </g>
   <g id="patch_10">
    <path d="M 57.6 41.472 
L 414.72 41.472 
" style="fill: none; stroke: #ffffff; stroke-width: 1.25; stroke-linejoin: miter; stroke-linecap: square"/>
   </g>
   <g id="legend_1">
    <g id="patch_11">
     <path d="M 347.173125 81.391687 
L 407.02 81.391687 
Q 409.22 81.391687 409.22 79.191688 
L 409.22 49.172 
Q 409.22 46.972 407.02 46.972 
L 347.173125 46.972 
Q 344.973125 46.972 344.973125 49.172 
L 344.973125 79.191688 
Q 344.973125 81.391687 347.173125 81.391687 
z
" style="fill: #eaeaf2; opacity: 0.8; stroke: #cccccc; stroke-linejoin: miter"/>
    </g>
    <g id="line2d_36">
     <path d="M 349.373125 55.395594 
L 360.373125 55.395594 
L 371.373125 55.395594 
" style="fill: none; stroke: #1a1a1a; stroke-width: 1.5; stroke-linecap: round"/>
    </g>
    <g id="text_21">
     <!-- Train -->
     <g style="fill: #262626" transform="translate(380.173125 59.245594)scale(0.11 -0.11)">
      <defs>
       <path id="ArialMT-54" d="M 1659 0 
L 1659 4041 
L 150 4041 
L 150 4581 
L 3781 4581 
L 3781 4041 
L 2266 4041 
L 2266 0 
L 1659 0 
z
" transform="scale(0.015625)"/>
      </defs>
      <use xlink:href="#ArialMT-54"/>
      <use xlink:href="#ArialMT-72" x="57.333984"/>
      <use xlink:href="#ArialMT-61" x="90.634766"/>
      <use xlink:href="#ArialMT-69" x="146.25"/>
      <use xlink:href="#ArialMT-6e" x="168.466797"/>
     </g>
    </g>
    <g id="line2d_37">
     <path d="M 349.373125 70.955438 
L 360.373125 70.955438 
L 371.373125 70.955438 
" style="fill: none; stroke-dasharray: 1.5,2.475; stroke-dashoffset: 0; stroke: #1a1a1a; stroke-width: 1.5"/>
    </g>
    <g id="text_22">
     <!-- Test -->
     <g style="fill: #262626" transform="translate(380.173125 74.805438)scale(0.11 -0.11)">
      <defs>
       <path id="ArialMT-73" d="M 197 991 
L 753 1078 
Q 800 744 1014 566 
Q 1228 388 1613 388 
Q 2000 388 2187 545 
Q 2375 703 2375 916 
Q 2375 1106 2209 1216 
Q 2094 1291 1634 1406 
Q 1016 1563 777 1677 
Q 538 1791 414 1992 
Q 291 2194 291 2438 
Q 291 2659 392 2848 
Q 494 3038 669 3163 
Q 800 3259 1026 3326 
Q 1253 3394 1513 3394 
Q 1903 3394 2198 3281 
Q 2494 3169 2634 2976 
Q 2775 2784 2828 2463 
L 2278 2388 
Q 2241 2644 2061 2787 
Q 1881 2931 1553 2931 
Q 1166 2931 1000 2803 
Q 834 2675 834 2503 
Q 834 2394 903 2306 
Q 972 2216 1119 2156 
Q 1203 2125 1616 2013 
Q 2213 1853 2448 1751 
Q 2684 1650 2818 1456 
Q 2953 1263 2953 975 
Q 2953 694 2789 445 
Q 2625 197 2315 61 
Q 2006 -75 1616 -75 
Q 969 -75 630 194 
Q 291 463 197 991 
z
" transform="scale(0.015625)"/>
       <path id="ArialMT-74" d="M 1650 503 
L 1731 6 
Q 1494 -44 1306 -44 
Q 1000 -44 831 53 
Q 663 150 594 308 
Q 525 466 525 972 
L 525 2881 
L 113 2881 
L 113 3319 
L 525 3319 
L 525 4141 
L 1084 4478 
L 1084 3319 
L 1650 3319 
L 1650 2881 
L 1084 2881 
L 1084 941 
Q 1084 700 1114 631 
Q 1144 563 1211 522 
Q 1278 481 1403 481 
Q 1497 481 1650 503 
z
" transform="scale(0.015625)"/>
      </defs>
      <use xlink:href="#ArialMT-54"/>
      <use xlink:href="#ArialMT-65" x="49.958984"/>
      <use xlink:href="#ArialMT-73" x="105.574219"/>
      <use xlink:href="#ArialMT-74" x="155.574219"/>
     </g>
    </g>
   </g>
  </g>
 </g>
 <defs>
  <clipPath id="pc6abad81b9">
   <rect x="57.6" y="41.472" width="357.12" height="266.112"/>
  </clipPath>
 </defs>
</svg>
